<?xml version="1.0" standalone="no"?>
<!DOCTYPE svg PUBLIC "-//W3C//DTD SVG 1.1//EN" "http://www.w3.org/Graphics/SVG/1.1/DTD/svg11.dtd" >
<svg>
<metadata>
Created by FontForge 20090622 at Tue Jul 11 13:40:32 2017
 By deploy user
Copyright (c) 1987, 1991, 1993 Adobe Systems Incorporated.  All Rights Reserved.Futura is a registered trademark of Fundicion Tipografica Neufville S. A.
</metadata>
<defs>
<font id="Futura-Medium" horiz-adv-x="578" >
  <font-face 
    font-family="Futura-Medium"
    font-weight="500"
    font-stretch="normal"
    units-per-em="1000"
    panose-1="2 11 6 0 0 0 0 0 0 0"
    ascent="800"
    descent="-200"
    x-height="468"
    cap-height="754"
    bbox="-50 -268 1113 995"
    underline-thickness="50"
    underline-position="-50"
    unicode-range="U+0020-U+2122"
  />
<missing-glyph horiz-adv-x="502" 
d="M-1 0h500v500h-500v-500zM9 10v480h480v-480h-480z" />
    <glyph glyph-name=".notdef" horiz-adv-x="502" 
d="M-1 0h500v500h-500v-500zM9 10v480h480v-480h-480z" />
    <glyph glyph-name="space" unicode=" " horiz-adv-x="289" 
 />
    <glyph glyph-name="exclam" unicode="!" horiz-adv-x="321" 
d="M161 100q-24 0 -41 -17.5t-17 -40.5q0 -24 17 -41t41 -17t41 17t17 41q0 23 -17 40.5t-41 17.5zM116 174h90v580h-90v-580z" />
    <glyph glyph-name="quotedbl" unicode="&#x22;" horiz-adv-x="439" 
d="M90 754l18 -328h62l18 328h-98zM251 754l18 -328h62l18 328h-98z" />
    <glyph glyph-name="numbersign" unicode="#" 
d="M217 718l-36 -194h-119v-80h105l-27 -154h-115v-80h100l-37 -210h75l40 210h123l-37 -210h76l38 210h117v80h-101l27 154h107v80h-92l35 194h-79l-35 -194h-124l36 194h-77zM245 444h123l-27 -154h-123z" />
    <glyph glyph-name="dollar" unicode="$" 
d="M333 349q49 -26 77 -57t28 -78q0 -48 -29.5 -86.5t-75.5 -49.5v271zM283 770q-37 -3 -69.5 -20t-57.5 -44.5t-39 -61.5t-14 -71q0 -67 37 -107t107 -76l36 -18v-300q-64 8 -97 41.5t-46 99.5l-90 -19q7 -43 27.5 -81t52 -66.5t71 -45t82.5 -17.5v-95h50v95q39 5 75 27
t63 55t42 72.5t15 79.5q0 44 -15.5 80t-42.5 63t-61 48t-76 39v235q33 -10 55 -27.5t37 -46.5l79 45q-27 51 -71 81t-100 35v90h-50v-90zM283 472q-43 17 -68 42t-25 66q0 39 27 68t66 35v-211z" />
    <glyph glyph-name="percent" unicode="%" horiz-adv-x="708" 
d="M193 770q-35 0 -67 -13t-56.5 -37t-38.5 -55.5t-14 -66.5t14 -66t39 -55t56.5 -37t66.5 -13t67 13t56.5 37t38.5 55t14 66t-14 66.5t-38.5 55.5t-56.5 37t-67 13zM193 710q47 0 81.5 -33t34.5 -79q0 -45 -34.5 -78t-81.5 -33t-81.5 33t-34.5 78q0 46 34.5 79t81.5 33z
M552 770l-441 -761l46 -25l440 760zM516 327q-35 0 -67 -13t-56.5 -37t-38.5 -55.5t-14 -66.5t14 -66t39 -55t56.5 -37t66.5 -13t67 13t56.5 37t38.5 55t14 66t-14 66.5t-38.5 55.5t-56.5 37t-67 13zM516 267q47 0 81.5 -33t34.5 -79q0 -45 -34.5 -78t-81.5 -33t-81.5 33
t-34.5 78q0 46 34.5 79t81.5 33z" />
    <glyph glyph-name="ampersand" unicode="&#x26;" horiz-adv-x="692" 
d="M287 372l167 -204q-47 -47 -86.5 -73.5t-86.5 -26.5q-26 0 -51.5 11.5t-45.5 31t-31.5 45t-11.5 51.5q0 43 33 77t90 72q1 1 14 10zM307 490l-25 32l-2 3q-21 27 -32 47t-11 44q0 35 24.5 57.5t59.5 22.5q39 0 63.5 -21.5t24.5 -60.5q0 -32 -19 -54.5t-55 -49.5
q-11 -8 -16 -12zM592 0h116l-135 167l92 108l-60 62l-88 -102l-157 190q64 47 92 79q21 25 33 52t12 57q0 72 -51 114.5t-123 42.5q-76 0 -125 -44.5t-49 -120.5q0 -44 23 -85t60 -80l-47 -34q-65 -47 -98.5 -91t-33.5 -109q0 -48 18 -89t50 -71t74 -46t89 -16
q64 0 122.5 32.5t103.5 85.5z" />
    <glyph glyph-name="quotesingle" unicode="'" horiz-adv-x="277" 
d="M90 754l18 -328h62l18 328h-98z" />
    <glyph glyph-name="parenleft" unicode="(" horiz-adv-x="292" 
d="M161 809q-52 -102 -78 -235.5t-26 -265.5q0 -131 26 -264.5t78 -236.5l74 55q-45 93 -65.5 210t-20.5 236t20.5 236t65.5 210z" />
    <glyph glyph-name="parenright" unicode=")" horiz-adv-x="292" 
d="M57 754q45 -93 65.5 -210t20.5 -236t-20.5 -236t-65.5 -210l74 -55q52 103 78 236.5t26 264.5q0 132 -26 265.5t-78 235.5z" />
    <glyph glyph-name="asterisk" unicode="*" horiz-adv-x="432" 
d="M184 754v-98l-89 49l-31 -57l84 -50l-85 -49l34 -57l87 49v-97h69v96l81 -50l35 58l-85 50l85 50l-35 59l-81 -48v95h-69z" />
    <glyph glyph-name="plus" unicode="+" 
d="M246 512v-213h-213v-86h213v-213h86v213h213v86h-213v213h-86z" />
    <glyph glyph-name="comma" unicode="," horiz-adv-x="289" 
d="M164 119l-110 -275l55 -23l133 267z" />
    <glyph glyph-name="hyphen" unicode="-" horiz-adv-x="332" 
d="M57 358v-75h219v75h-219z" />
    <glyph glyph-name="period" unicode="." horiz-adv-x="289" 
d="M145 100q-24 0 -41 -17.5t-17 -40.5q0 -24 17 -41t41 -17t41 17t17 41q0 23 -17 40.5t-41 17.5z" />
    <glyph glyph-name="slash" unicode="/" horiz-adv-x="551" 
d="M448 868l-416 -962l71 -32l417 962z" />
    <glyph glyph-name="zero" unicode="0" 
d="M289 -16q69 0 120 37.5t82.5 97.5t46 128t14.5 130q0 63 -14.5 130.5t-46 128t-82.5 97.5t-120 37t-120 -37.5t-82.5 -97t-46 -127.5t-14.5 -131q0 -62 14.5 -130t46 -128t82.5 -97.5t120 -37.5zM289 690q48 0 81.5 -31.5t53.5 -81t29 -102t9 -97.5t-9 -97t-29 -101
t-53.5 -80.5t-81.5 -31.5t-81.5 31.5t-53.5 80.5t-29 101t-9 97t9 97.5t29 102t53.5 81t81.5 31.5z" />
    <glyph glyph-name="one" unicode="1" 
d="M254 668v-668h90v754h-169l-52 -86h131z" />
    <glyph glyph-name="two" unicode="2" 
d="M228 86l248 303q27 33 41.5 73.5t14.5 81.5q0 48 -18.5 89.5t-52 72t-76.5 47.5t-91 17q-101 0 -164 -61t-75 -163h94q4 57 46 97.5t99 40.5q29 0 56 -11t47.5 -31t32.5 -46.5t12 -55.5q0 -33 -18 -65t-49 -70l-330 -405h487v86h-304z" />
    <glyph glyph-name="three" unicode="3" 
d="M275 360h8l7 1q65 0 104.5 -40t39.5 -107q0 -62 -41 -105t-103 -43q-56 0 -97.5 33t-48.5 87h-91q2 -45 21.5 -82.5t51 -64.5t72 -41t85.5 -14q51 0 95 15.5t76.5 45t51 71.5t18.5 94q0 63 -26.5 112.5t-80.5 74.5q96 54 96 170q0 46 -17 84t-46.5 64.5t-69.5 40.5
t-85 14q-93 0 -150.5 -48.5t-70.5 -141.5h93q8 49 41.5 78.5t83.5 29.5q57 0 94 -36t37 -93q0 -64 -40.5 -92.5t-107.5 -28.5v-78z" />
    <glyph glyph-name="four" unicode="4" 
d="M469 192v594l-462 -676h372v-110h90v110h86v82h-86zM379 192h-214l212 311h2v-311z" />
    <glyph glyph-name="five" unicode="5" 
d="M528 668v86h-302l-116 -387h18q24 31 62.5 49t78.5 18q36 0 68.5 -14t58 -39t39.5 -57.5t14 -68.5q0 -37 -14 -71t-39 -59.5t-58 -40t-71 -14.5q-51 0 -100.5 32.5t-66.5 79.5l-70 -66q33 -61 96 -96.5t134 -35.5q58 0 109 19.5t89 55.5t59.5 85.5t21.5 107.5
q0 52 -17 100t-49.5 85t-77.5 58t-98 21l-53 -3l47 155h237z" />
    <glyph glyph-name="six" unicode="6" 
d="M379 770l-257 -346q-39 -52 -60.5 -99.5t-21.5 -99.5q0 -49 20.5 -93t56 -77t81 -52t93.5 -19q51 0 96.5 19t80 53.5t53.5 79.5t19 96q0 45 -16.5 87.5t-46.5 76t-69.5 53t-85.5 19.5q-38 0 -74 -18l-2 2l201 272zM290 68q-32 0 -61 12.5t-51 34.5t-35 51t-13 61
q0 30 13 58.5t36 51t52 35t59 12.5t58.5 -12t51.5 -34t36.5 -52t13.5 -64q0 -31 -13 -59t-35.5 -49.5t-51.5 -33.5t-60 -12z" />
    <glyph glyph-name="seven" unicode="7" 
d="M437 668l-390 -639l73 -45l470 770h-543v-86h390z" />
    <glyph glyph-name="eight" unicode="8" 
d="M289 352q28 0 54.5 -11t47.5 -30.5t32.5 -45.5t11.5 -55q0 -28 -12 -53.5t-33 -45.5t-47.5 -31.5t-53.5 -11.5t-53.5 11.5t-47.5 31.5t-33 45.5t-12 53.5q0 29 11.5 55t32.5 46t47.5 30.5t54.5 10.5zM53 210q0 -51 18.5 -93t51 -72t75.5 -45.5t91 -15.5t91 15.5
t75.5 45.5t51 72t18.5 93q0 63 -31 112t-88 69q47 27 73 70.5t26 98.5q0 45 -16.5 84t-46.5 67t-69 43.5t-84 15.5t-84 -15.5t-69 -43.5t-46.5 -67t-16.5 -84q0 -55 26 -98.5t73 -70.5q-57 -20 -88 -69t-31 -112zM289 690q52 0 90 -38t38 -92q0 -22 -11 -45t-29.5 -42
t-41.5 -30t-46 -11t-46 11t-41.5 30t-29.5 42t-11 45q0 54 38.5 92t89.5 38z" />
    <glyph glyph-name="nine" unicode="9" 
d="M213 -16l257 346q38 52 60 99.5t22 99.5q0 49 -20.5 93t-56 77t-81 52t-93.5 19q-51 0 -96 -19t-80 -53.5t-54 -79.5t-19 -96q0 -45 16.5 -86.5t46.5 -74.5t70 -52t86 -19q45 0 73 14l2 -2l-201 -271zM302 370q-29 0 -57.5 12t-52 33.5t-37 51t-13.5 61.5t13 60.5
t36 50.5t53.5 34.5t63.5 12.5q30 0 58 -13t49.5 -36t34 -51.5t12.5 -57.5q0 -31 -11.5 -59.5t-33 -50.5t-51 -35t-64.5 -13z" />
    <glyph glyph-name="colon" unicode=":" horiz-adv-x="289" 
d="M145 100q-24 0 -41 -17.5t-17 -40.5q0 -24 17 -41t41 -17t41 17t17 41q0 23 -17 40.5t-41 17.5zM145 482q-24 0 -41 -17.5t-17 -40.5q0 -24 17 -41t41 -17t41 17t17 41q0 23 -17 40.5t-41 17.5z" />
    <glyph glyph-name="semicolon" unicode=";" horiz-adv-x="289" 
d="M156 119l-110 -275l55 -23l133 267zM192 482q-24 0 -41 -17.5t-17 -40.5q0 -24 17 -41t41 -17t41 17t17 41q0 23 -17 40.5t-41 17.5z" />
    <glyph glyph-name="less" unicode="&#x3c;" 
d="M545 498l-512 -207v-70l512 -207v94l-384 148l384 148v94z" />
    <glyph glyph-name="equal" unicode="=" 
d="M33 385v-86h512v86h-512zM33 213v-86h512v86h-512z" />
    <glyph glyph-name="greater" unicode="&#x3e;" 
d="M33 404l384 -148l-384 -148v-94l512 207v70l-512 207v-94z" />
    <glyph glyph-name="question" unicode="?" horiz-adv-x="453" 
d="M301 345q0 -33 -20 -55t-51 -22q-30 0 -50 21t-20 51t20 46.5t53 26.5l7 2q42 13 69 24.5t48 29.5q26 22 40 55.5t14 68.5q0 37 -13.5 69.5t-38.5 57t-58 37.5t-70 13q-34 0 -66.5 -12t-57.5 -34.5t-40 -54.5t-15 -69l2 -33h94l-1 3q-5 18 -5 29q0 35 25.5 60.5
t60.5 25.5q40 0 66 -24t26 -65q0 -40 -26.5 -59.5t-81.5 -39.5q-6 -2 -17 -6q-28 -10 -49 -20.5t-38.5 -27t-28 -41t-10.5 -58.5q0 -33 12.5 -62.5t34.5 -51.5t51.5 -34t62.5 -12q31 0 60 12.5t52 34.5t36.5 51.5t13.5 62.5h-91zM230 100q-24 0 -41 -17.5t-17 -40.5
q0 -24 17 -41t41 -17t41 17t17 41q0 23 -17 40.5t-41 17.5z" />
    <glyph glyph-name="at" unicode="@" horiz-adv-x="800" 
d="M503 372q-8 -61 -40 -100.5t-94 -39.5q-45 0 -72.5 34t-27.5 80q0 27 9 54.5t27 50t42.5 35.5t53.5 13q47 0 75 -27.5t28 -76.5v-11q-1 -7 -1 -12zM528 506q-29 38 -61.5 54.5t-71.5 16.5q-45 0 -83 -19.5t-65 -53.5t-41.5 -77t-14.5 -88q0 -38 13.5 -71.5t37.5 -59.5
t54 -40t63 -14q42 0 74.5 16.5t61.5 45.5q5 -28 19 -44.5t35 -17.5q41 0 80.5 21.5t73.5 65.5q30 39 46 94t16 118q0 68 -29.5 126t-82.5 104q-49 44 -108.5 65.5t-126.5 21.5q-79 0 -148.5 -29.5t-122 -83t-82 -125.5t-29.5 -155t30 -155.5t83.5 -126t124.5 -82.5t150 -29
q89 0 147 17t122 51l-75 60q-57 -48 -186 -48q-63 0 -120.5 23t-101.5 65t-69 100t-25 125q0 64 23 121t64 100.5t95.5 67.5t116.5 24q57 0 106.5 -19t86.5 -55t57 -86.5t20 -112.5q0 -36 -10 -70.5t-26.5 -62t-35.5 -43.5t-36 -16q-12 0 -17 8.5t-5 22.5q0 15 7 50l1 5
l50 257h-71z" />
    <glyph glyph-name="A" unicode="A" horiz-adv-x="703" 
d="M525 189l86 -189h101l-360 786l-360 -786h101l86 189h346zM486 275h-268l134 305z" />
    <glyph glyph-name="B" unicode="B" horiz-adv-x="535" 
d="M158 670h26q37 0 65 -5t49.5 -18t33.5 -38t12 -63q0 -39 -12 -64t-34 -38.5t-50.5 -18.5t-65.5 -5h-24v250zM158 345h58q36 0 68.5 -5.5t61 -19.5t45.5 -39.5t17 -63.5t-15 -64.5t-40 -41.5t-56 -21t-67 -6h-72v261zM64 0h176q52 0 98.5 12t83.5 37.5t58.5 66t21.5 95.5
q0 33 -11 64.5t-31.5 58t-48 44.5t-60.5 24v2q37 17 59 58.5t22 84.5q0 61 -22 102t-60.5 64t-87 32t-106.5 9h-92v-754z" />
    <glyph glyph-name="C" unicode="C" horiz-adv-x="661" 
d="M621 719q-41 26 -90 38.5t-100 12.5q-82 0 -155 -30t-128.5 -85t-86.5 -127.5t-31 -154.5q0 -80 30.5 -151t85 -125t126.5 -83.5t151 -29.5q50 0 102.5 14t95.5 39v111q-42 -38 -94 -58t-107 -20q-62 0 -116 24t-94.5 67t-63 98.5t-22.5 116.5q0 62 22.5 118t63.5 99
t95.5 67t116.5 24q54 0 106.5 -19t92.5 -55v109z" />
    <glyph glyph-name="D" unicode="D" horiz-adv-x="665" 
d="M64 0h153q90 0 167.5 23.5t136 71.5t90.5 120t32 166q0 92 -32.5 162.5t-91 117t-135 70t-164.5 23.5h-156v-754zM158 668h33q75 0 139.5 -15t113.5 -49t77 -90.5t28 -136.5q0 -79 -28 -135.5t-77 -90.5t-113 -49.5t-140 -15.5h-33v582z" />
    <glyph glyph-name="E" unicode="E" horiz-adv-x="521" 
d="M72 0h405v86h-311v285h302v86h-302v211h311v86h-405v-754z" />
    <glyph glyph-name="F" unicode="F" horiz-adv-x="474" 
d="M436 668v86h-365v-754h94v370h262v86h-262v212h271z" />
    <glyph glyph-name="G" unicode="G" horiz-adv-x="780" 
d="M460 380v-86h195q-1 -45 -23 -85.5t-57.5 -72t-79 -49t-87.5 -17.5q-59 0 -113 25.5t-94.5 69.5t-63 99.5t-22.5 113.5q0 62 23 118t64 98.5t96.5 66t117.5 23.5q68 0 132 -33.5t105 -89.5l66 63q-55 69 -136.5 107.5t-170.5 38.5q-80 0 -151.5 -30.5t-125.5 -85.5
t-84 -127t-30 -152q0 -77 29.5 -148t82 -126t122.5 -86t147 -31t143 27.5t114 77.5t74 117t26 144v30h-299z" />
    <glyph glyph-name="H" unicode="H" horiz-adv-x="675" 
d="M158 450v304h-94v-754h94v362h359v-362h94v754h-94v-304h-359z" />
    <glyph glyph-name="I" unicode="I" horiz-adv-x="232" 
d="M163 754h-94v-754h94v754z" />
    <glyph glyph-name="J" unicode="J" horiz-adv-x="362" 
d="M209 754v-479q0 -43 -2.5 -75t-12.5 -61.5t-32 -48t-59 -18.5q-42 0 -75 25l-47 -80q56 -33 118 -33q63 0 104 24t62.5 64.5t29.5 90.5t8 112v479h-94z" />
    <glyph glyph-name="K" unicode="K" horiz-adv-x="600" 
d="M166 427v327h-94v-754h94v315l38 36l284 -351h127l-345 415l339 339h-123z" />
    <glyph glyph-name="L" unicode="L" horiz-adv-x="385" 
d="M166 754h-94v-754h323v86h-229v668z" />
    <glyph glyph-name="M" unicode="M" horiz-adv-x="851" 
d="M426 -16l226 514h2l88 -498h97l-154 786l-259 -594l-259 594l-154 -786h97l88 498h2z" />
    <glyph glyph-name="N" unicode="N" horiz-adv-x="785" 
d="M63 0h94v562l566 -593v785h-94v-557l-566 593v-790z" />
    <glyph glyph-name="O" unicode="O" horiz-adv-x="828" 
d="M414 770q-80 0 -152 -30.5t-126.5 -85t-85.5 -126.5t-31 -151q0 -82 30.5 -154.5t85 -126t126.5 -83t153 -29.5t153 29.5t126.5 83t85 126t30.5 154.5q0 79 -31 151t-85.5 126.5t-126.5 85t-152 30.5zM414 72q-61 0 -115.5 23t-96.5 65t-65.5 98t-23.5 119q0 62 22 117.5
t62.5 98t96 66t120.5 23.5t120.5 -23.5t96 -66t62.5 -98t22 -117.5q0 -63 -23.5 -119t-65.5 -98t-96.5 -65t-115.5 -23z" />
    <glyph glyph-name="P" unicode="P" horiz-adv-x="495" 
d="M166 316h54q56 0 103.5 12.5t83.5 39t56.5 68.5t20.5 100q0 54 -15.5 94t-50.5 67.5t-93.5 42t-144.5 14.5h-108v-754h94v316zM166 670h25q41 0 75.5 -4.5t64 -18t47.5 -40.5t18 -69q0 -43 -16.5 -70.5t-45 -42t-62.5 -20t-76 -5.5h-30v270z" />
    <glyph glyph-name="Q" unicode="Q" horiz-adv-x="828" 
d="M808 -16l-117 115q56 53 87 125.5t31 152.5q0 79 -31 151t-85.5 126.5t-126.5 85t-152 30.5t-152 -30.5t-126.5 -85t-85.5 -126.5t-31 -151q0 -82 30.5 -154.5t85 -126t126.5 -83t153 -29.5q55 0 112 17.5t103 49.5l65 -67h114zM508 284h-117l173 -169q-33 -21 -73.5 -32
t-76.5 -11q-61 0 -115.5 23t-96.5 65t-65.5 98t-23.5 119q0 62 22 117.5t62.5 98t96 66t120.5 23.5t120.5 -23.5t96 -66t62.5 -98t22 -117.5q0 -57 -23 -115.5t-65 -95.5z" />
    <glyph glyph-name="R" unicode="R" horiz-adv-x="543" 
d="M303 328q81 10 131 69.5t50 141.5q0 55 -26.5 104t-72.5 76q-40 23 -86.5 29t-112.5 6h-114v-754h94v319h39l222 -319h114zM166 670h25q40 0 75 -5t64.5 -19t47.5 -41.5t18 -69.5q0 -43 -16.5 -70.5t-45 -42t-62.5 -20t-76 -5.5h-30v273z" />
    <glyph glyph-name="S" unicode="S" horiz-adv-x="537" 
d="M482 656q-31 55 -81 84.5t-113 29.5q-43 0 -83 -13.5t-71.5 -39t-49.5 -62t-18 -80.5q0 -38 13 -67.5t35.5 -52t50.5 -39t65 -32.5l52 -22q28 -12 50.5 -24t38.5 -27q41 -37 41 -92q0 -60 -39.5 -103.5t-99.5 -43.5q-61 0 -103.5 40.5t-42.5 102.5l-95 -20
q6 -45 26 -83.5t51 -67.5t71 -44.5t85 -15.5q50 0 94 17t77 49t51.5 75.5t18.5 93.5q0 46 -13.5 81.5t-38.5 62t-58.5 46.5t-76.5 37l-54 21q-45 17 -75 42.5t-30 65.5q0 47 39 77t87 30q42 0 71 -17.5t50 -53.5z" />
    <glyph glyph-name="T" unicode="T" horiz-adv-x="456" 
d="M275 668h179v86h-452v-86h179v-668h94v668z" />
    <glyph glyph-name="U" unicode="U" horiz-adv-x="669" 
d="M59 754v-477q0 -62 19 -115.5t55 -93.5t87 -62t115 -22t115.5 22t87 61.5t54.5 93.5t19 116v477h-94v-445q0 -50 -8.5 -91.5t-29 -74.5t-56.5 -52t-88 -19t-88 19t-56.5 52t-29 74.5t-8.5 91.5v445h-94z" />
    <glyph glyph-name="V" unicode="V" horiz-adv-x="640" 
d="M96 754h-103l328 -794l327 794h-103l-224 -558z" />
    <glyph glyph-name="W" unicode="W" horiz-adv-x="1027" 
d="M90 754h-102l313 -784l213 553l213 -553l313 784h-102l-211 -540l-213 556l-213 -556z" />
    <glyph glyph-name="X" unicode="X" horiz-adv-x="574" 
d="M237 395l-237 -395h105l185 309l178 -309h105l-229 395l217 359h-107l-164 -275l-154 275h-107z" />
    <glyph glyph-name="Y" unicode="Y" horiz-adv-x="573" 
d="M240 328v-328h94v328l246 426h-108l-185 -322l-185 322h-108z" />
    <glyph glyph-name="Z" unicode="Z" horiz-adv-x="552" 
d="M162 86l382 668h-481v-86h328l-382 -668h535v86h-382z" />
    <glyph glyph-name="bracketleft" unicode="[" horiz-adv-x="311" 
d="M153 725h98v84h-190v-1002h190v84h-98v834z" />
    <glyph glyph-name="backslash" unicode="\" horiz-adv-x="551" 
d="M31 868l404 -868h84l-404 868h-84z" />
    <glyph glyph-name="bracketright" unicode="]" horiz-adv-x="311" 
d="M158 -109h-98v-84h190v1002h-190v-84h98v-834z" />
    <glyph glyph-name="asciicircum" unicode="^" 
d="M33 308h93l163 362l162 -362h94l-200 446h-112z" />
    <glyph glyph-name="underscore" unicode="_" horiz-adv-x="500" 
d="M500 -75h-500v-50h500v50z" />
    <glyph glyph-name="grave" unicode="`" horiz-adv-x="360" 
d="M76 690l164 -149l44 27l-125 166z" />
    <glyph glyph-name="a" unicode="a" horiz-adv-x="556" 
d="M264 64q-68 0 -108 50t-40 120q0 69 40.5 118.5t107.5 49.5q70 0 111 -48.5t41 -119.5q0 -72 -40.5 -121t-111.5 -49zM501 468h-90v-78h-2q-28 43 -69.5 67.5t-92.5 24.5q-50 0 -91 -19.5t-70 -54t-44.5 -79t-15.5 -92.5q0 -50 15 -96t44 -81.5t71 -55.5t94 -20
q49 0 90 24t69 65h2v-73h90v468z" />
    <glyph glyph-name="b" unicode="b" horiz-adv-x="556" 
d="M288 64q-68 0 -108 50t-40 120q0 69 40.5 118.5t107.5 49.5q70 0 111 -48.5t41 -119.5q0 -72 -40.5 -121t-111.5 -49zM55 0h90v73h2q28 -41 69.5 -65t89.5 -24q52 0 94.5 20t71 55t43.5 81t15 97q0 48 -15.5 92.5t-44.5 78.5t-70 54t-90 20q-51 0 -92.5 -24.5
t-70.5 -67.5h-2v478h-90v-868z" />
    <glyph glyph-name="c" unicode="c" horiz-adv-x="441" 
d="M406 451q-26 15 -58.5 23t-65.5 8q-53 0 -100 -18.5t-82 -53t-54.5 -80.5t-19.5 -100q0 -52 19.5 -97t54 -78.5t80.5 -52t97 -18.5q71 0 129 31v115q-55 -62 -128 -62q-71 0 -116.5 47t-45.5 119q0 32 12 61.5t33.5 52.5t50 36.5t60.5 13.5q79 0 134 -63v116z" />
    <glyph glyph-name="d" unicode="d" horiz-adv-x="556" 
d="M264 64q-68 0 -108 50t-40 120q0 69 40.5 118.5t107.5 49.5q70 0 111 -48.5t41 -119.5q0 -72 -40.5 -121t-111.5 -49zM411 0h90v868h-90v-478h-2q-29 43 -70.5 67.5t-92.5 24.5q-49 0 -90 -20t-70 -54t-44.5 -78.5t-15.5 -92.5q0 -51 15 -96.5t44 -81t71 -55.5t94 -20
q48 0 89.5 24t69.5 65h2v-73z" />
    <glyph glyph-name="e" unicode="e" horiz-adv-x="488" 
d="M473 219v14q0 110 -56 179.5t-163 69.5q-110 0 -169 -70t-59 -182q0 -52 16 -97t46 -78.5t72.5 -52t95.5 -18.5q69 0 126.5 34t90.5 94l-76 43q-28 -46 -59.5 -68.5t-80.5 -22.5q-62 0 -101 46t-40 109h357zM121 287q8 51 44.5 84t88.5 33q53 0 87 -31.5t42 -85.5h-262z
" />
    <glyph glyph-name="f" unicode="f" horiz-adv-x="275" 
d="M294 868q-30 12 -63 12q-42 0 -71.5 -14t-47 -39t-25 -58t-7.5 -73v-228h-41v-84h41v-384h90v384h124v84h-124v201q0 25 1.5 44.5t7.5 38.5t19.5 31.5t35.5 12.5q11 0 24.5 -4.5t31.5 -12.5l4 -2v91z" />
    <glyph glyph-name="g" unicode="g" horiz-adv-x="555" 
d="M263 64q-68 0 -108 50t-40 120q0 69 40.5 118.5t107.5 49.5q70 0 111 -48.5t41 -119.5q0 -72 -40.5 -121t-111.5 -49zM500 468h-90v-80h-2q-29 45 -70.5 69.5t-92.5 24.5q-49 0 -90 -20t-70 -54t-44.5 -78.5t-15.5 -92.5q0 -51 15 -96.5t44 -81t71 -55.5t94 -20
q48 0 89.5 24t69.5 65h2v-89q0 -39 -6 -69.5t-20.5 -53.5t-41 -36t-66.5 -13q-63 0 -101.5 35t-38.5 97h-90q2 -98 64.5 -155t161.5 -57q66 0 111 20t70.5 56.5t36 86.5t10.5 114v459z" />
    <glyph glyph-name="h" unicode="h" horiz-adv-x="523" 
d="M62 868v-868h90v215q0 44 2.5 73t13 55.5t35 42.5t65.5 16q64 0 83.5 -32.5t19.5 -101.5v-268h90v279q0 45 -7.5 81.5t-26.5 64t-51.5 42.5t-80.5 15q-44 0 -82.5 -20t-58.5 -57h-2v463h-90z" />
    <glyph glyph-name="i" unicode="i" horiz-adv-x="254" 
d="M172 468h-90v-468h90v468zM127 745q-26 0 -44 -18.5t-18 -44.5q0 -25 18 -43t44 -18t44 18t18 43q0 26 -18 44.5t-44 18.5z" />
    <glyph glyph-name="j" unicode="j" horiz-adv-x="254" 
d="M172 468h-90v-736h90v736zM127 745q-26 0 -44 -18.5t-18 -44.5q0 -25 18 -43t44 -18t44 18t18 43q0 26 -18 44.5t-44 18.5z" />
    <glyph glyph-name="k" unicode="k" horiz-adv-x="462" 
d="M158 868h-90v-868h90v182l31 31l167 -213h117l-220 274l200 194h-119l-176 -176v576z" />
    <glyph glyph-name="l" unicode="l" horiz-adv-x="222" 
d="M156 868h-90v-868h90v868z" />
    <glyph glyph-name="m" unicode="m" horiz-adv-x="767" 
d="M149 468h-90v-468h90v230q0 33 3.5 61.5t13.5 54t31.5 41t55.5 15.5q29 0 47 -14.5t26.5 -37.5t10.5 -47.5t2 -54.5v-248h90v230q0 34 3 62.5t13.5 53.5t31.5 40.5t55 15.5q28 0 45.5 -12t26.5 -32t12 -43t3 -50v-265h90v280q0 43 -7.5 78.5t-25 63.5t-48 44t-74.5 16
t-83 -22.5t-61 -60.5q-23 40 -57 61.5t-78 21.5q-37 0 -70.5 -20.5t-53.5 -52.5h-2v59z" />
    <glyph glyph-name="n" unicode="n" horiz-adv-x="523" 
d="M152 468h-90v-468h90v215q0 44 2.5 73t13 55.5t35 42.5t65.5 16q64 0 83.5 -32.5t19.5 -101.5v-268h90v279q0 45 -7.5 81.5t-26.5 64t-51.5 42.5t-80.5 15q-44 0 -82.5 -20t-58.5 -57h-2v63z" />
    <glyph glyph-name="o" unicode="o" horiz-adv-x="540" 
d="M270 482q-51 0 -97 -19t-80.5 -53t-53.5 -79.5t-19 -97.5t19 -97.5t53.5 -79.5t80.5 -53t97 -19q52 0 97.5 19t80 53t53.5 79.5t19 97.5t-19 97.5t-53.5 79.5t-80 53t-97.5 19zM270 396q33 0 62 -12.5t51.5 -35.5t34.5 -52.5t12 -62.5q0 -32 -12.5 -62t-34.5 -52.5
t-51 -35.5t-62 -13t-62 13t-51 35.5t-34.5 52.5t-12.5 62q0 33 12.5 62.5t34.5 52.5t51.5 35.5t61.5 12.5z" />
    <glyph glyph-name="p" unicode="p" horiz-adv-x="556" 
d="M288 64q-68 0 -108 50t-40 120q0 69 40.5 118.5t107.5 49.5q70 0 111 -48.5t41 -119.5q0 -72 -40.5 -121t-111.5 -49zM145 468h-90v-736h90v341h2q28 -41 69.5 -65t89.5 -24q52 0 94.5 20t71 55t43.5 81t15 97q0 48 -15.5 92.5t-44.5 78.5t-70 54t-90 20
q-51 0 -92.5 -24.5t-70.5 -67.5h-2v78z" />
    <glyph glyph-name="q" unicode="q" horiz-adv-x="556" 
d="M264 64q-68 0 -108 50t-40 120q0 69 40.5 118.5t107.5 49.5q70 0 111 -48.5t41 -119.5q0 -72 -40.5 -121t-111.5 -49zM501 468h-90v-78h-2q-29 43 -70.5 67.5t-92.5 24.5q-49 0 -90 -20t-70 -54t-44.5 -78.5t-15.5 -92.5q0 -51 15 -96.5t44 -81t71 -55.5t94 -20
q48 0 89.5 24t69.5 65h2v-341h90v736z" />
    <glyph glyph-name="r" unicode="r" horiz-adv-x="351" 
d="M158 468h-90v-468h90v230q0 33 4 61.5t15 52t33 38t57 14.5q33 0 55 -19l41 82q-36 23 -74 23q-44 0 -77.5 -24t-50.5 -66h-3v76z" />
    <glyph glyph-name="s" unicode="s" horiz-adv-x="384" 
d="M323 400q-19 39 -52.5 60.5t-75.5 21.5q-57 0 -97.5 -39.5t-40.5 -96.5q0 -44 22 -68.5t68 -49.5l88 -47q18 -12 25.5 -22.5t7.5 -28.5q0 -29 -20.5 -47.5t-50.5 -18.5t-49.5 15.5t-35.5 44.5l-77 -35q18 -48 64 -76.5t98 -28.5q32 0 61.5 11.5t52 32.5t35 49.5
t12.5 61.5q0 50 -29 80t-79 53l-20 9q-46 20 -67.5 35.5t-21.5 39.5q0 19 15 32.5t34 13.5t35.5 -11.5t24.5 -29.5z" />
    <glyph glyph-name="t" unicode="t" horiz-adv-x="240" 
d="M165 384h88v84h-88v179h-90v-179h-49v-84h49v-384h90v384z" />
    <glyph glyph-name="u" unicode="u" horiz-adv-x="512" 
d="M58 468v-269q0 -100 49 -157.5t149 -57.5t149 57.5t49 157.5v269h-90v-259q0 -31 -4.5 -55.5t-16.5 -44t-33.5 -30.5t-53.5 -11t-53.5 11t-33.5 30.5t-16.5 44t-4.5 55.5v259h-90z" />
    <glyph glyph-name="v" unicode="v" horiz-adv-x="445" 
d="M88 468h-101l235 -484l236 484h-101l-135 -292z" />
    <glyph glyph-name="w" unicode="w" horiz-adv-x="718" 
d="M86 468h-102l238 -484l138 313l137 -313l238 484h-102l-136 -298l-137 324l-138 -324z" />
    <glyph glyph-name="x" unicode="x" horiz-adv-x="489" 
d="M195 254l-209 -254h109l149 190l154 -190h105l-201 254l172 214h-109l-121 -151l-111 151h-106z" />
    <glyph glyph-name="y" unicode="y" horiz-adv-x="484" 
d="M201 80l-184 -348h102l379 736h-101l-147 -297l-158 297h-105z" />
    <glyph glyph-name="z" unicode="z" horiz-adv-x="495" 
d="M177 84l317 384h-438v-84h263l-317 -384h479v84h-304z" />
    <glyph glyph-name="braceleft" unicode="{" horiz-adv-x="334" 
d="M48 271q75 -33 75 -151v-182q0 -29 8.5 -53.5t22 -42t28.5 -27t26 -9.5h78v84h-40q-21 0 -26 15t-5 47v184q0 40 -9 71t-22 52t-25 32t-20 16q9 6 20.5 17t24.5 32t22 52t9 71v184q0 32 5 47t26 15h40v84h-78q-11 0 -26 -9.5t-28.5 -27.5t-22 -42t-8.5 -53v-182
q0 -118 -75 -151v-73z" />
    <glyph glyph-name="bar" unicode="|" horiz-adv-x="570" 
d="M328 786h-86v-1000h86v1000z" />
    <glyph glyph-name="braceright" unicode="}" horiz-adv-x="334" 
d="M286 344q-75 33 -75 151v182q0 29 -8.5 53.5t-22 42t-28 27t-26.5 9.5h-78v-84h40q21 0 26 -15t5 -47v-184q0 -40 9 -71t22.5 -52t24.5 -32t20 -17q-8 -5 -19.5 -16t-25 -32t-22.5 -52t-9 -71v-184q0 -32 -5 -47t-26 -15h-40v-84h78q12 0 26.5 9.5t28 27.5t22 42t8.5 53
v182q0 118 75 151v73z" />
    <glyph glyph-name="asciitilde" unicode="~" 
d="M478 334q-1 -1 -7 -12q-24 -40 -39.5 -57t-39.5 -17q-13 0 -27 8.5t-38 27.5q-11 9 -19 15q-31 24 -60 37.5t-62 13.5q-45 0 -77.5 -30t-69.5 -85q-4 -5 -6 -8l63 -45q26 43 47 62.5t45 19.5q11 0 26 -8.5t43 -27.5q16 -12 21 -15q36 -24 63 -37.5t52 -13.5q49 0 86.5 35
t65.5 87z" />
    <glyph glyph-name="quotesinglbase" unicode="&#x201a;" horiz-adv-x="277" 
d="M164 119l-110 -275l55 -23l133 267z" />
    <glyph glyph-name="florin" unicode="&#x192;" 
d="M355 505l22 113l1 2q6 34 11.5 54.5t16.5 38.5t29.5 28.5t47.5 10.5q23 0 41 -7l16 84q-27 7 -60 7q-49 0 -83.5 -15t-57 -43t-35.5 -64t-21 -85l-21 -124h-70l-9 -68h65l-53 -308l-1 -4q-8 -48 -15.5 -78t-22 -55.5t-41 -40t-67.5 -14.5h-19l-15 -86h24q70 0 115 20.5
t70.5 57.5t39 83.5t26.5 121.5l55 303h131l9 68h-129z" />
    <glyph glyph-name="quotedblbase" unicode="&#x201e;" horiz-adv-x="439" 
d="M160 119l-110 -275l55 -23l133 267zM326 119l-110 -275l55 -23l133 267z" />
    <glyph glyph-name="ellipsis" unicode="&#x2026;" horiz-adv-x="1000" 
d="M500 100q-24 0 -41 -17.5t-17 -40.5q0 -24 17 -41t41 -17t41 17t17 41q0 23 -17 40.5t-41 17.5zM834 100q-24 0 -41 -17.5t-17 -40.5q0 -24 17 -41t41 -17t41 17t17 41q0 23 -17 40.5t-41 17.5zM166 100q-24 0 -41 -17.5t-17 -40.5q0 -24 17 -41t41 -17t41 17t17 41
q0 23 -17 40.5t-41 17.5z" />
    <glyph glyph-name="dagger" unicode="&#x2020;" 
d="M244 868v-275h-181v-86h181v-595h90v595h181v86h-181v275h-90z" />
    <glyph glyph-name="daggerdbl" unicode="&#x2021;" 
d="M244 868v-239h-181v-86h181v-122h-181v-86h181v-422h90v422h181v86h-181v122h181v86h-181v239h-90z" />
    <glyph glyph-name="circumflex" unicode="&#x2c6;" horiz-adv-x="470" 
d="M75 589l58 -46l101 96l102 -96l59 46l-161 145z" />
    <glyph glyph-name="perthousand" unicode="&#x2030;" horiz-adv-x="1110" 
d="M198 770q-35 0 -67 -13t-56.5 -37t-38.5 -55.5t-14 -66.5t14 -66t39 -55t56.5 -37t66.5 -13t67 13t56.5 37t38.5 55t14 66t-14 66.5t-38.5 55.5t-56.5 37t-67 13zM198 710q47 0 81.5 -33t34.5 -79q0 -45 -34.5 -78t-81.5 -33t-81.5 33t-34.5 78q0 46 34.5 79t81.5 33z
M557 770l-441 -761l46 -25l440 760zM521 327q-35 0 -67 -13t-56.5 -37t-38.5 -55.5t-14 -66.5t14 -66t39 -55t56.5 -37t66.5 -13t67 13t56.5 37t38.5 55t14 66t-14 66.5t-38.5 55.5t-56.5 37t-67 13zM521 267q47 0 81.5 -33t34.5 -79q0 -45 -34.5 -78t-81.5 -33t-81.5 33
t-34.5 78q0 46 34.5 79t81.5 33zM913 327q-35 0 -67 -13t-56.5 -37t-38.5 -55.5t-14 -66.5t14 -66t39 -55t56.5 -37t66.5 -13t67 13t56.5 37t38.5 55t14 66t-14 66.5t-38.5 55.5t-56.5 37t-67 13zM913 267q47 0 81.5 -33t34.5 -79q0 -45 -34.5 -78t-81.5 -33t-81.5 33
t-34.5 78q0 46 34.5 79t81.5 33z" />
    <glyph glyph-name="Scaron" unicode="&#x160;" horiz-adv-x="537" 
d="M119 949l159 -145l161 145l-59 46l-102 -96l-101 96zM482 656q-31 55 -81 84.5t-113 29.5q-43 0 -83 -13.5t-71.5 -39t-49.5 -62t-18 -80.5q0 -38 13 -67.5t35.5 -52t50.5 -39t65 -32.5l52 -22q28 -12 50.5 -24t38.5 -27q41 -37 41 -92q0 -60 -39.5 -103.5t-99.5 -43.5
q-61 0 -103.5 40.5t-42.5 102.5l-95 -20q6 -45 26 -83.5t51 -67.5t71 -44.5t85 -15.5q50 0 94 17t77 49t51.5 75.5t18.5 93.5q0 46 -13.5 81.5t-38.5 62t-58.5 46.5t-76.5 37l-54 21q-45 17 -75 42.5t-30 65.5q0 47 39 77t87 30q42 0 71 -17.5t50 -53.5z" />
    <glyph glyph-name="guilsinglleft" unicode="&#x2039;" horiz-adv-x="336" 
d="M111 320l149 199l-56 41l-182 -240l182 -232l56 41z" />
    <glyph glyph-name="OE" unicode="&#x152;" horiz-adv-x="1143" 
d="M718 0h395v86h-310v285h301v86h-301v211h310v86h-395v-132h-2q-48 69 -130 107t-172 41q-80 0 -152 -30.5t-126.5 -85t-85.5 -126.5t-31 -151q0 -82 30.5 -154.5t85 -126t126.5 -83t153 -29.5q93 0 172.5 37t129.5 105h2v-126zM414 72q-61 0 -115.5 23t-96.5 65t-65.5 98
t-23.5 119q0 62 22 117.5t62.5 98t96 66t120.5 23.5t120.5 -23.5t96 -66t62.5 -98t22 -117.5q0 -63 -23.5 -119t-65.5 -98t-96.5 -65t-115.5 -23z" />
    <glyph glyph-name="quoteleft" unicode="&#x2018;" horiz-adv-x="277" 
d="M139 472l110 275l-56 23l-133 -267z" />
    <glyph glyph-name="quoteright" unicode="&#x2019;" horiz-adv-x="277" 
d="M138 770l-110 -275l56 -23l133 267z" />
    <glyph glyph-name="quotedblleft" unicode="&#x201c;" horiz-adv-x="439" 
d="M305 472l110 275l-56 23l-133 -267zM139 472l110 275l-56 23l-133 -267z" />
    <glyph glyph-name="quotedblright" unicode="&#x201d;" horiz-adv-x="439" 
d="M134 770l-110 -275l56 -23l133 267zM300 770l-110 -275l56 -23l133 267z" />
    <glyph glyph-name="bullet" unicode="&#x2022;" 
d="M289 189q38 0 72.5 14.5t60.5 40t41 60t15 73.5t-14.5 73.5t-40.5 60.5t-60.5 40.5t-73.5 14.5q-38 0 -72.5 -14.5t-60.5 -40.5t-40.5 -60.5t-14.5 -73.5t14.5 -73t40.5 -60t60.5 -40.5t72.5 -14.5z" />
    <glyph glyph-name="endash" unicode="&#x2013;" horiz-adv-x="500" 
d="M0 358v-75h500v75h-500z" />
    <glyph glyph-name="emdash" unicode="&#x2014;" horiz-adv-x="1000" 
d="M130 358v-75h740v75h-740z" />
    <glyph glyph-name="tilde" unicode="&#x2dc;" horiz-adv-x="510" 
d="M111 573q9 18 24.5 32t32.5 14q24 0 72 -22l6 -3q27 -13 45.5 -19.5t37.5 -6.5q39 0 69.5 22.5t48.5 59.5l-47 39q-13 -21 -28.5 -34.5t-35.5 -13.5q-22 0 -71 27h-1q-48 26 -89 26q-36 0 -59 -19.5t-49 -56.5l-3 -5z" />
    <glyph glyph-name="trademark" unicode="&#x2122;" horiz-adv-x="940" 
d="M906 754h-104l-125 -297l-121 297h-105v-421h64v357h2l140 -357h39l144 357h2v-357h64v421zM374 754h-340v-64h138v-357h64v357h138v64z" />
    <glyph glyph-name="scaron" unicode="&#x161;" horiz-adv-x="384" 
d="M32 688l159 -145l161 145l-59 46l-102 -96l-101 96zM323 400q-19 39 -52.5 60.5t-75.5 21.5q-57 0 -97.5 -39.5t-40.5 -96.5q0 -44 22 -68.5t68 -49.5l88 -47q18 -12 25.5 -22.5t7.5 -28.5q0 -29 -20.5 -47.5t-50.5 -18.5t-49.5 15.5t-35.5 44.5l-77 -35q18 -48 64 -76.5
t98 -28.5q32 0 61.5 11.5t52 32.5t35 49.5t12.5 61.5q0 50 -29 80t-79 53l-20 9q-46 20 -67.5 35.5t-21.5 39.5q0 19 15 32.5t34 13.5t35.5 -11.5t24.5 -29.5z" />
    <glyph glyph-name="guilsinglright" unicode="&#x203a;" horiz-adv-x="336" 
d="M76 129l56 -41l182 232l-182 240l-56 -41l149 -199z" />
    <glyph glyph-name="oe" unicode="&#x153;" horiz-adv-x="897" 
d="M529 287q8 51 44.5 84t88.5 33q53 0 87 -31.5t42 -85.5h-262zM270 396q33 0 62 -12.5t51.5 -35.5t34.5 -52.5t12 -62.5q0 -32 -12.5 -62t-34.5 -52.5t-51 -35.5t-62 -13t-62 13t-51 35.5t-34.5 52.5t-12.5 62q0 33 12.5 62.5t34.5 52.5t51.5 35.5t61.5 12.5zM882 219v14
q0 110 -56 179.5t-163 69.5q-129 -4 -193 -105q-32 47 -86.5 75t-113.5 30q-51 0 -97 -19t-80.5 -53t-53.5 -79.5t-19 -97.5t19 -97.5t53.5 -79.5t80.5 -53t97 -19q60 0 113.5 27t86.5 76q28 -48 81 -75.5t114 -27.5q69 0 126.5 34t90.5 94l-76 43q-28 -46 -59.5 -68.5
t-80.5 -22.5q-62 0 -101 46t-40 109h357z" />
    <glyph glyph-name="Ydieresis" unicode="&#x178;" horiz-adv-x="573" 
d="M194 955q-25 0 -43 -17.5t-18 -42.5t18 -43t43 -18t42.5 18t17.5 43t-17.5 42.5t-42.5 17.5zM405 955q-25 0 -43 -17.5t-18 -42.5t18 -43t43 -18t42.5 18t17.5 43t-17.5 42.5t-42.5 17.5zM240 328v-328h94v328l246 426h-108l-185 -322l-185 322h-108z" />
    <glyph glyph-name="exclamdown" unicode="&#xa1;" horiz-adv-x="321" 
d="M161 508q-24 0 -41 -17.5t-17 -40.5q0 -24 17 -41t41 -17t41 17t17 41q0 23 -17 40.5t-41 17.5zM116 323v-581h90v581h-90z" />
    <glyph glyph-name="cent" unicode="&#xa2;" 
d="M356 704h-48v-78q-45 -7 -83.5 -29t-66.5 -56t-43 -76t-15 -88q0 -45 15.5 -86t43.5 -73t66 -53t83 -28v-89h48v85l17 1q55 5 105 28v117q-26 -27 -55 -42t-67 -20v328q35 -1 67 -18t53 -45h2v115q-26 15 -56.5 22t-65.5 9v76zM308 220q-54 11 -87 58t-33 103q0 24 9 51
t25 50t38 38.5t48 18.5v-319z" />
    <glyph glyph-name="sterling" unicode="&#xa3;" 
d="M90 -16q13 31 34 48t54 17q23 0 50 -8t66 -24q40 -16 71 -24.5t60 -8.5q54 0 93.5 32.5t62.5 85.5l-75 46q-19 -34 -37.5 -54t-45.5 -20q-15 0 -31.5 5.5t-39.5 14.5l-23 9l-74 26q14 48 14 87q0 40 -14 85h124v58h-148q-5 9 -20 34q-24 40 -37.5 71t-13.5 67
q0 27 13.5 54t36 49t52 35t59.5 13q63 0 104.5 -44.5t41.5 -107.5v-28l90 34q-5 105 -70 169.5t-170 64.5q-46 0 -90.5 -17.5t-80 -49.5t-56 -74t-20.5 -90q0 -40 16.5 -86t41.5 -94h-100v-58h129q22 -38 22 -82q0 -35 -14 -82q-54 -2 -88.5 -30.5t-65.5 -82.5z" />
    <glyph glyph-name="currency" unicode="&#xa4;" 
d="M483 546l-46 -44q-30 23 -66 35.5t-82 12.5t-82 -12.5t-66 -35.5l-46 44l-60 -60l41 -44q-21 -33 -31.5 -67t-10.5 -75t10.5 -75t31.5 -67l-41 -44l60 -60l46 44q30 -23 66 -35.5t82 -12.5t82 12.5t66 35.5l46 -44l60 60l-41 44q21 33 31.5 67t10.5 75t-10.5 75t-31.5 67
l41 44zM289 130q-36 0 -67.5 13.5t-55.5 37t-37.5 54.5t-14.5 65q0 75 50 122.5t125 47.5t125 -48t50 -122q0 -34 -13.5 -65t-37.5 -54.5t-56 -37t-68 -13.5z" />
    <glyph glyph-name="yen" unicode="&#xa5;" 
d="M336 260h236v58h-236v10l55 94h181v58h-148l158 274h-108l-185 -322l-185 322h-108l158 -274h-148v-58h182l54 -94v-10h-236v-58h236v-260h94v260z" />
    <glyph glyph-name="brokenbar" unicode="&#xa6;" horiz-adv-x="570" 
d="M328 161h-86v-250h86v250zM328 661h-86v-250h86v250z" />
    <glyph glyph-name="section" unicode="&#xa7;" 
d="M214 335l-1 1q-41 20 -62.5 39t-21.5 53q0 31 16.5 60t43.5 46l184 -93q37 -18 56.5 -37t19.5 -51q0 -30 -16.5 -59t-43.5 -46zM310 192l2 -1q48 -24 74 -47t26 -61q0 -48 -37.5 -80.5t-86.5 -32.5q-61 0 -98.5 42t-37.5 106h-89v-15q0 -99 63.5 -157t162.5 -58
q42 0 80.5 13.5t68.5 39t47 61.5t17 79q0 72 -53 122q41 30 65 75t24 94q0 28 -12 50.5t-32 40.5t-40.5 30t-53.5 28l-133 67q-39 19 -62 42t-23 59q0 42 29.5 71t71.5 29q43 0 76.5 -24t35.5 -65h87q-5 78 -62 123t-137 45q-36 0 -70.5 -13t-62 -37t-43 -57t-15.5 -70
q0 -61 44 -111q-46 -35 -71 -73t-25 -89q0 -33 9.5 -57t26.5 -41t38 -29.5t55 -29.5z" />
    <glyph glyph-name="dieresis" unicode="&#xa8;" horiz-adv-x="470" 
d="M130 694q-25 0 -43 -17.5t-18 -42.5t18 -43t43 -18t42.5 18t17.5 43t-17.5 42.5t-42.5 17.5zM341 694q-25 0 -43 -17.5t-18 -42.5t18 -43t43 -18t42.5 18t17.5 43t-17.5 42.5t-42.5 17.5z" />
    <glyph glyph-name="copyright" unicode="&#xa9;" horiz-adv-x="800" 
d="M400 -16q81 0 153 30t126.5 84t84.5 126t30 153t-30 152.5t-84.5 126t-126.5 84.5t-153 30t-153 -30t-126.5 -84t-84.5 -126t-30 -153t30 -152.5t84.5 -126t126.5 -84.5t153 -30zM400 706q66 0 126.5 -25t106.5 -70t71.5 -105.5t25.5 -128.5t-25.5 -128t-71.5 -105.5
t-106 -70.5t-127 -25q-66 0 -126.5 25t-106 70t-71.5 105.5t-26 128.5t25.5 128.5t71.5 105.5t106.5 70t126.5 25zM600 458q-13 69 -63.5 109t-121.5 40q-100 0 -159 -63.5t-59 -163.5q0 -47 15.5 -88t44.5 -72t69.5 -48.5t89.5 -17.5q70 0 122.5 42t61.5 111h-61
q-21 -89 -123 -89q-73 0 -114 46t-41 118q0 31 9 59.5t28 51.5t48 36.5t68 13.5q50 0 83 -22t42 -63h61z" />
    <glyph glyph-name="ordfeminine" unicode="&#xaa;" horiz-adv-x="334" 
d="M167 519q-44 0 -70 30t-26 72q0 41 26.5 71t69.5 30q46 0 72.5 -29t26.5 -72t-26.5 -72.5t-72.5 -29.5zM322 761h-59v-46h-1q-20 26 -46.5 40.5t-59.5 14.5q-64 0 -104 -43.5t-40 -103.5q0 -64 39.5 -108t106.5 -44q32 0 58.5 14.5t44.5 38.5h2v-43h59v280z" />
    <glyph glyph-name="guillemotleft" unicode="&#xab;" horiz-adv-x="523" 
d="M311 320l149 199l-56 41l-182 -240l182 -232l56 41zM119 320l149 199l-56 41l-182 -240l182 -232l56 41z" />
    <glyph glyph-name="logicalnot" unicode="&#xac;" 
d="M459 115h86v270h-512v-86h426v-184z" />
    <glyph glyph-name="minus" unicode="&#xad;" 
d="M33 213h512v86h-512v-86z" />
    <glyph glyph-name="minus" unicode="&#x2212;" 
d="M33 213h512v86h-512v-86z" />
    <glyph glyph-name="registered" unicode="&#xae;" horiz-adv-x="800" 
d="M400 -16q81 0 153 30t126.5 84t84.5 126t30 153t-30 152.5t-84.5 126t-126.5 84.5t-153 30t-153 -30t-126.5 -84t-84.5 -126t-30 -153t30 -152.5t84.5 -126t126.5 -84.5t153 -30zM400 706q66 0 126.5 -25t106.5 -70t71.5 -105.5t25.5 -128.5t-25.5 -128t-71.5 -105.5
t-106 -70.5t-127 -25q-66 0 -126.5 25t-106 70t-71.5 105.5t-26 128.5t25.5 128.5t71.5 105.5t106.5 70t126.5 25zM468 357q50 2 84 31.5t34 89.5q0 34 -12 57t-33 36t-48 18.5t-59 5.5h-186v-442h64v204h82l113 -204h73zM422 531q49 0 74.5 -11t25.5 -49q0 -31 -25 -41
t-69 -10q-13 0 -25 1h-23h-68v110h110z" />
    <glyph glyph-name="macron" unicode="&#xaf;" horiz-adv-x="500" 
d="M70 694v-68h361v68h-361z" />
    <glyph glyph-name="degree" unicode="&#xb0;" horiz-adv-x="400" 
d="M350 620q0 30 -11.5 57.5t-32.5 48.5t-48.5 32.5t-57.5 11.5t-57.5 -11.5t-48.5 -32.5t-32.5 -48t-11.5 -58q0 -30 11.5 -57.5t32.5 -48.5t48.5 -32.5t57.5 -11.5t57.5 11.5t48.5 32t32.5 48t11.5 58.5zM199 720q43 0 72 -29t29 -71q0 -43 -29 -71.5t-71 -28.5
q-43 0 -71.5 28.5t-28.5 71.5t28.5 71.5t70.5 28.5z" />
    <glyph glyph-name="plusminus" unicode="&#xb1;" 
d="M33 0h512v86h-512v-86zM246 562v-173h-213v-86h213v-173h86v173h213v86h-213v173h-86z" />
    <glyph glyph-name="twosuperior" unicode="&#xb2;" horiz-adv-x="346" 
d="M144 360l155 175q16 18 24.5 43t8.5 50q0 58 -46 97t-109 39q-66 0 -107 -36.5t-48 -97.5h67q2 34 26.5 55t61.5 21q33 0 62 -23t29 -57q0 -21 -10.5 -41t-27.5 -40l-215 -243h317v58h-188z" />
    <glyph glyph-name="threesuperior" unicode="&#xb3;" horiz-adv-x="346" 
d="M163 518q45 0 73 -22.5t28 -59.5q0 -35 -26.5 -57.5t-64.5 -22.5q-39 0 -62 15.5t-28 48.5h-64q3 -55 46.5 -88.5t102.5 -33.5q68 0 114 37t46 99q0 38 -19 67.5t-54 44.5q66 35 66 102q0 55 -42 88.5t-103 33.5t-98 -29t-46 -85h67q0 28 21.5 42t53.5 14q34 0 58.5 -18
t24.5 -51t-25.5 -50t-68.5 -17v-58z" />
    <glyph glyph-name="acute" unicode="&#xb4;" horiz-adv-x="360" 
d="M201 734l-125 -166l44 -27l164 149z" />
    <glyph glyph-name="mu" unicode="&#xb5;" horiz-adv-x="512" 
d="M58 468v-736h90v296q22 -18 51 -31t57 -13q100 0 149 57.5t49 157.5v269h-90v-259q0 -31 -4.5 -55.5t-16.5 -44t-33.5 -30.5t-53.5 -11t-53.5 11t-33.5 30.5t-16.5 44t-4.5 55.5v259h-90z" />
    <glyph glyph-name="paragraph" unicode="&#xb6;" 
d="M538 754h-282q-45 0 -85 -20.5t-69.5 -55.5t-45.5 -78t-16 -86q0 -5 1 -9v-8q7 -100 63.5 -157t142.5 -57v-436h84v823h62v-823h84v823h61v84z" />
    <glyph glyph-name="periodcentered" unicode="&#xb7;" horiz-adv-x="289" 
d="M145 314q-24 0 -41 -17.5t-17 -40.5q0 -24 17 -41t41 -17t41 17t17 41q0 23 -17 40.5t-41 17.5z" />
    <glyph glyph-name="periodcentered" unicode="&#x2219;" horiz-adv-x="289" 
d="M145 314q-24 0 -41 -17.5t-17 -40.5q0 -24 17 -41t41 -17t41 17t17 41q0 23 -17 40.5t-41 17.5z" />
    <glyph glyph-name="cedilla" unicode="&#xb8;" horiz-adv-x="330" 
d="M244 -46l-71 29l-87 -137l53 -27z" />
    <glyph glyph-name="onesuperior" unicode="&#xb9;" horiz-adv-x="346" 
d="M151 696v-394h64v452h-116l-34 -58h86z" />
    <glyph glyph-name="ordmasculine" unicode="&#xba;" horiz-adv-x="324" 
d="M162 770q-68 0 -115 -43t-47 -107q0 -63 47 -106t115 -43t115.5 43t47.5 106q0 64 -47 107t-116 43zM162 718q43 0 73.5 -28.5t30.5 -69.5q0 -39 -30.5 -68t-73.5 -29t-73 29t-30 68q0 41 30 69.5t73 28.5z" />
    <glyph glyph-name="guillemotright" unicode="&#xbb;" horiz-adv-x="523" 
d="M63 129l56 -41l182 232l-182 240l-56 -41l149 -199zM255 129l56 -41l182 232l-182 240l-56 -41l149 -199z" />
    <glyph glyph-name="onequarter" unicode="&#xbc;" horiz-adv-x="867" 
d="M126 696v-394h64v452h-116l-34 -58h86zM778 124v349l-307 -407h243v-66h64v66h49v58h-49zM714 124h-126l123 164h3v-164zM631 770l-440 -758l51 -28l440 760z" />
    <glyph glyph-name="onehalf" unicode="&#xbd;" horiz-adv-x="867" 
d="M126 302h64v452h-116l-34 -58h86v-394zM639 58l155 175q16 18 24.5 43t8.5 50q0 58 -46 97t-109 39q-66 0 -107 -36.5t-48 -97.5h67q2 34 26.5 55t61.5 21q33 0 62 -23t29 -57q0 -21 -10.5 -41t-27.5 -40l-215 -243h317v58h-188zM579 770l-440 -758l51 -28l440 760z" />
    <glyph glyph-name="threequarters" unicode="&#xbe;" horiz-adv-x="867" 
d="M778 124v349l-307 -407h243v-66h64v66h49v58h-49zM714 124h-126l123 164h3v-164zM184 518q45 0 73 -22.5t28 -59.5q0 -35 -26.5 -57.5t-64.5 -22.5q-39 0 -62 15.5t-28 48.5h-64q3 -55 46.5 -88.5t102.5 -33.5q68 0 114 37t46 99q0 38 -19 67.5t-54 44.5q66 35 66 102
q0 55 -42 88.5t-103 33.5t-98 -29t-46 -85h67q0 28 21.5 42t53.5 14q34 0 58.5 -18t24.5 -51t-25.5 -50t-68.5 -17v-58zM687 770l-440 -758l51 -28l440 760z" />
    <glyph glyph-name="questiondown" unicode="&#xbf;" horiz-adv-x="453" 
d="M152 157q0 33 20 55t51 22q30 0 50 -21t20 -51t-20 -46.5t-53 -26.5l-7 -2q-42 -13 -69 -24.5t-48 -29.5q-26 -22 -40 -55.5t-14 -68.5q0 -37 13.5 -69.5t38.5 -57t58 -37.5t70 -13q34 0 66.5 12t57.5 34.5t40 54.5t15 69l-2 33h-94l1 -3q5 -18 5 -29q0 -35 -25.5 -60.5
t-60.5 -25.5q-40 0 -66 24t-26 65q0 40 26.5 59.5t81.5 39.5q6 2 17 6q28 10 49 20.5t39 27t28 41t10 58.5q0 33 -12.5 62.5t-34.5 51.5t-51.5 34t-62.5 12q-30 0 -59.5 -12.5t-52.5 -34.5t-36.5 -51.5t-13.5 -62.5h91zM223 508q-24 0 -41 -17.5t-17 -40.5q0 -24 17 -41
t41 -17t41 17t17 41q0 23 -17 40.5t-41 17.5z" />
    <glyph glyph-name="Agrave" unicode="&#xc0;" horiz-adv-x="703" 
d="M208 951l164 -149l44 27l-125 166zM525 189l86 -189h101l-360 786l-360 -786h101l86 189h346zM486 275h-268l134 305z" />
    <glyph glyph-name="Aacute" unicode="&#xc1;" horiz-adv-x="703" 
d="M413 995l-125 -166l44 -27l164 149zM525 189l86 -189h101l-360 786l-360 -786h101l86 189h346zM486 275h-268l134 305z" />
    <glyph glyph-name="Acircumflex" unicode="&#xc2;" horiz-adv-x="703" 
d="M192 850l58 -46l101 96l102 -96l59 46l-161 145zM525 189l86 -189h101l-360 786l-360 -786h101l86 189h346zM486 275h-268l134 305z" />
    <glyph glyph-name="Atilde" unicode="&#xc3;" horiz-adv-x="703" 
d="M208 834q9 18 24.5 32t32.5 14q24 0 72 -22l6 -3q27 -13 45.5 -19.5t37.5 -6.5q39 0 69.5 22.5t48.5 59.5l-47 39q-13 -21 -28.5 -34.5t-35.5 -13.5q-22 0 -71 27h-1q-48 26 -89 26q-36 0 -59 -19.5t-49 -56.5l-3 -5zM525 189l86 -189h101l-360 786l-360 -786h101l86 189
h346zM486 275h-268l134 305z" />
    <glyph glyph-name="Adieresis" unicode="&#xc4;" horiz-adv-x="703" 
d="M247 955q-25 0 -43 -17.5t-18 -42.5t18 -43t43 -18t42.5 18t17.5 43t-17.5 42.5t-42.5 17.5zM458 955q-25 0 -43 -17.5t-18 -42.5t18 -43t43 -18t42.5 18t17.5 43t-17.5 42.5t-42.5 17.5zM525 189l86 -189h101l-360 786l-360 -786h101l86 189h346zM486 275h-268l134 305z
" />
    <glyph glyph-name="Aring" unicode="&#xc5;" horiz-adv-x="703" 
d="M352 985q-37 0 -63.5 -26.5t-26.5 -64.5t26 -64t64 -26t64.5 26t26.5 64t-26.5 64.5t-64.5 26.5zM352 849q-18 0 -31.5 13t-13.5 32t13.5 32.5t31.5 13.5q19 0 32.5 -13.5t13.5 -32.5t-13.5 -32t-32.5 -13zM525 189l86 -189h101l-360 786l-360 -786h101l86 189h346z
M486 275h-268l134 305z" />
    <glyph glyph-name="AE" unicode="&#xc6;" horiz-adv-x="997" 
d="M532 189l83 -189h406l-38 86h-311l-121 285h302l-40 86h-301l-91 211h309l-38 86h-330l-362 -754h103l86 189h343zM497 275h-268l138 292z" />
    <glyph glyph-name="Ccedilla" unicode="&#xc7;" horiz-adv-x="661" 
d="M621 719q-41 26 -90 38.5t-100 12.5q-82 0 -155 -30t-128.5 -85t-86.5 -127.5t-31 -154.5q0 -80 30.5 -151t85 -125t126.5 -83.5t151 -29.5q50 0 102.5 14t95.5 39v111q-42 -38 -94 -58t-107 -20q-62 0 -116 24t-94.5 67t-63 98.5t-22.5 116.5q0 62 22.5 118t63.5 99
t95.5 67t116.5 24q54 0 106.5 -19t92.5 -55v109zM410 -46l-71 29l-87 -137l53 -27z" />
    <glyph glyph-name="Egrave" unicode="&#xc8;" horiz-adv-x="521" 
d="M137 951l164 -149l44 27l-125 166zM72 0h405v86h-311v285h302v86h-302v211h311v86h-405v-754z" />
    <glyph glyph-name="Eacute" unicode="&#xc9;" horiz-adv-x="521" 
d="M322 995l-125 -166l44 -27l164 149zM72 0h405v86h-311v285h302v86h-302v211h311v86h-405v-754z" />
    <glyph glyph-name="Ecircumflex" unicode="&#xca;" horiz-adv-x="521" 
d="M113 850l58 -46l101 96l102 -96l59 46l-161 145zM72 0h405v86h-311v285h302v86h-302v211h311v86h-405v-754z" />
    <glyph glyph-name="Edieresis" unicode="&#xcb;" horiz-adv-x="521" 
d="M168 955q-25 0 -43 -17.5t-18 -42.5t18 -43t43 -18t42.5 18t17.5 43t-17.5 42.5t-42.5 17.5zM379 955q-25 0 -43 -17.5t-18 -42.5t18 -43t43 -18t42.5 18t17.5 43t-17.5 42.5t-42.5 17.5zM72 0h405v86h-311v285h302v86h-302v211h311v86h-405v-754z" />
    <glyph glyph-name="Igrave" unicode="&#xcc;" horiz-adv-x="232" 
d="M-18 951l164 -149l44 27l-125 166zM163 754h-94v-754h94v754z" />
    <glyph glyph-name="Iacute" unicode="&#xcd;" horiz-adv-x="232" 
d="M167 995l-125 -166l44 -27l164 149zM163 754h-94v-754h94v754z" />
    <glyph glyph-name="Icircumflex" unicode="&#xce;" horiz-adv-x="232" 
d="M-44 850l58 -46l101 96l102 -96l59 46l-161 145zM163 754h-94v-754h94v754z" />
    <glyph glyph-name="Idieresis" unicode="&#xcf;" horiz-adv-x="232" 
d="M11 955q-25 0 -43 -17.5t-18 -42.5t18 -43t43 -18t42.5 18t17.5 43t-17.5 42.5t-42.5 17.5zM222 955q-25 0 -43 -17.5t-18 -42.5t18 -43t43 -18t42.5 18t17.5 43t-17.5 42.5t-42.5 17.5zM163 754h-94v-754h94v754z" />
    <glyph glyph-name="Eth" unicode="&#xd0;" horiz-adv-x="665" 
d="M64 442h-64v-80h64v-362h153q90 0 167.5 23.5t136 71.5t90.5 120t32 166q0 92 -32.5 162.5t-91 117t-135 70t-164.5 23.5h-156v-312zM158 668h33q75 0 139.5 -15t113.5 -49t77 -90.5t28 -136.5q0 -79 -28 -135.5t-77 -90.5t-113 -49.5t-140 -15.5h-33v276h134v80h-134
v226z" />
    <glyph glyph-name="Ntilde" unicode="&#xd1;" horiz-adv-x="785" 
d="M249 834q9 18 24.5 32t32.5 14q24 0 72 -22l6 -3q27 -13 45.5 -19.5t37.5 -6.5q39 0 69.5 22.5t48.5 59.5l-47 39q-13 -21 -28.5 -34.5t-35.5 -13.5q-22 0 -71 27h-1q-48 26 -89 26q-36 0 -59 -19.5t-49 -56.5l-3 -5zM63 0h94v562l566 -593v785h-94v-557l-566 593v-790z
" />
    <glyph glyph-name="Ograve" unicode="&#xd2;" horiz-adv-x="828" 
d="M280 951l164 -149l44 27l-125 166zM414 770q-80 0 -152 -30.5t-126.5 -85t-85.5 -126.5t-31 -151q0 -82 30.5 -154.5t85 -126t126.5 -83t153 -29.5t153 29.5t126.5 83t85 126t30.5 154.5q0 79 -31 151t-85.5 126.5t-126.5 85t-152 30.5zM414 72q-61 0 -115.5 23t-96.5 65
t-65.5 98t-23.5 119q0 62 22 117.5t62.5 98t96 66t120.5 23.5t120.5 -23.5t96 -66t62.5 -98t22 -117.5q0 -63 -23.5 -119t-65.5 -98t-96.5 -65t-115.5 -23z" />
    <glyph glyph-name="Oacute" unicode="&#xd3;" horiz-adv-x="828" 
d="M465 995l-125 -166l44 -27l164 149zM414 770q-80 0 -152 -30.5t-126.5 -85t-85.5 -126.5t-31 -151q0 -82 30.5 -154.5t85 -126t126.5 -83t153 -29.5t153 29.5t126.5 83t85 126t30.5 154.5q0 79 -31 151t-85.5 126.5t-126.5 85t-152 30.5zM414 72q-61 0 -115.5 23
t-96.5 65t-65.5 98t-23.5 119q0 62 22 117.5t62.5 98t96 66t120.5 23.5t120.5 -23.5t96 -66t62.5 -98t22 -117.5q0 -63 -23.5 -119t-65.5 -98t-96.5 -65t-115.5 -23z" />
    <glyph glyph-name="Ocircumflex" unicode="&#xd4;" horiz-adv-x="828" 
d="M254 850l58 -46l101 96l102 -96l59 46l-161 145zM414 770q-80 0 -152 -30.5t-126.5 -85t-85.5 -126.5t-31 -151q0 -82 30.5 -154.5t85 -126t126.5 -83t153 -29.5t153 29.5t126.5 83t85 126t30.5 154.5q0 79 -31 151t-85.5 126.5t-126.5 85t-152 30.5zM414 72
q-61 0 -115.5 23t-96.5 65t-65.5 98t-23.5 119q0 62 22 117.5t62.5 98t96 66t120.5 23.5t120.5 -23.5t96 -66t62.5 -98t22 -117.5q0 -63 -23.5 -119t-65.5 -98t-96.5 -65t-115.5 -23z" />
    <glyph glyph-name="Otilde" unicode="&#xd5;" horiz-adv-x="828" 
d="M270 834q9 18 24.5 32t32.5 14q24 0 72 -22l6 -3q27 -13 45.5 -19.5t37.5 -6.5q39 0 69.5 22.5t48.5 59.5l-47 39q-13 -21 -28.5 -34.5t-35.5 -13.5q-22 0 -71 27h-1q-48 26 -89 26q-36 0 -59 -19.5t-49 -56.5l-3 -5zM414 770q-80 0 -152 -30.5t-126.5 -85t-85.5 -126.5
t-31 -151q0 -82 30.5 -154.5t85 -126t126.5 -83t153 -29.5t153 29.5t126.5 83t85 126t30.5 154.5q0 79 -31 151t-85.5 126.5t-126.5 85t-152 30.5zM414 72q-61 0 -115.5 23t-96.5 65t-65.5 98t-23.5 119q0 62 22 117.5t62.5 98t96 66t120.5 23.5t120.5 -23.5t96 -66
t62.5 -98t22 -117.5q0 -63 -23.5 -119t-65.5 -98t-96.5 -65t-115.5 -23z" />
    <glyph glyph-name="Odieresis" unicode="&#xd6;" horiz-adv-x="828" 
d="M309 955q-25 0 -43 -17.5t-18 -42.5t18 -43t43 -18t42.5 18t17.5 43t-17.5 42.5t-42.5 17.5zM520 955q-25 0 -43 -17.5t-18 -42.5t18 -43t43 -18t42.5 18t17.5 43t-17.5 42.5t-42.5 17.5zM414 770q-80 0 -152 -30.5t-126.5 -85t-85.5 -126.5t-31 -151q0 -82 30.5 -154.5
t85 -126t126.5 -83t153 -29.5t153 29.5t126.5 83t85 126t30.5 154.5q0 79 -31 151t-85.5 126.5t-126.5 85t-152 30.5zM414 72q-61 0 -115.5 23t-96.5 65t-65.5 98t-23.5 119q0 62 22 117.5t62.5 98t96 66t120.5 23.5t120.5 -23.5t96 -66t62.5 -98t22 -117.5
q0 -63 -23.5 -119t-65.5 -98t-96.5 -65t-115.5 -23z" />
    <glyph glyph-name="multiply" unicode="&#xd7;" 
d="M33 451l195 -195l-195 -195l60 -61l196 195l196 -195l60 61l-195 195l195 195l-60 61l-196 -195l-196 195z" />
    <glyph glyph-name="Oslash" unicode="&#xd8;" horiz-adv-x="828" 
d="M659 557q27 -38 41.5 -84t14.5 -96q0 -63 -23.5 -119t-65.5 -98t-96.5 -65t-115.5 -23q-51 0 -98 16.5t-85 46.5zM178 189q-31 39 -48 87t-17 101q0 62 22 117.5t62.5 98t96 66t120.5 23.5q57 0 106.5 -18t87.5 -52zM7 21l54 -53l104 102q52 -41 116 -63.5t133 -22.5
q81 0 153 29.5t126.5 83t85 126t30.5 154.5q0 67 -22.5 129t-63.5 114l98 96l-54 53l-96 -95q-52 45 -118.5 70.5t-138.5 25.5q-80 0 -152 -30.5t-126.5 -85t-85.5 -126.5t-31 -151q0 -73 24 -137.5t68 -116.5z" />
    <glyph glyph-name="Ugrave" unicode="&#xd9;" horiz-adv-x="669" 
d="M201 951l164 -149l44 27l-125 166zM59 754v-477q0 -62 19 -115.5t55 -93.5t87 -62t115 -22t115.5 22t87 61.5t54.5 93.5t19 116v477h-94v-445q0 -50 -8.5 -91.5t-29 -74.5t-56.5 -52t-88 -19t-88 19t-56.5 52t-29 74.5t-8.5 91.5v445h-94z" />
    <glyph glyph-name="Uacute" unicode="&#xda;" horiz-adv-x="669" 
d="M386 995l-125 -166l44 -27l164 149zM59 754v-477q0 -62 19 -115.5t55 -93.5t87 -62t115 -22t115.5 22t87 61.5t54.5 93.5t19 116v477h-94v-445q0 -50 -8.5 -91.5t-29 -74.5t-56.5 -52t-88 -19t-88 19t-56.5 52t-29 74.5t-8.5 91.5v445h-94z" />
    <glyph glyph-name="Ucircumflex" unicode="&#xdb;" horiz-adv-x="669" 
d="M175 850l58 -46l101 96l102 -96l59 46l-161 145zM59 754v-477q0 -62 19 -115.5t55 -93.5t87 -62t115 -22t115.5 22t87 61.5t54.5 93.5t19 116v477h-94v-445q0 -50 -8.5 -91.5t-29 -74.5t-56.5 -52t-88 -19t-88 19t-56.5 52t-29 74.5t-8.5 91.5v445h-94z" />
    <glyph glyph-name="Udieresis" unicode="&#xdc;" horiz-adv-x="669" 
d="M230 955q-25 0 -43 -17.5t-18 -42.5t18 -43t43 -18t42.5 18t17.5 43t-17.5 42.5t-42.5 17.5zM441 955q-25 0 -43 -17.5t-18 -42.5t18 -43t43 -18t42.5 18t17.5 43t-17.5 42.5t-42.5 17.5zM59 754v-477q0 -62 19 -115.5t55 -93.5t87 -62t115 -22t115.5 22t87 61.5
t54.5 93.5t19 116v477h-94v-445q0 -50 -8.5 -91.5t-29 -74.5t-56.5 -52t-88 -19t-88 19t-56.5 52t-29 74.5t-8.5 91.5v445h-94z" />
    <glyph glyph-name="Yacute" unicode="&#xdd;" horiz-adv-x="573" 
d="M368 995l-125 -166l44 -27l164 149zM240 328v-328h94v328l246 426h-108l-185 -322l-185 322h-108z" />
    <glyph glyph-name="Thorn" unicode="&#xde;" horiz-adv-x="495" 
d="M166 176h54q56 0 103.5 12.5t83.5 39t56.5 68.5t20.5 100q0 54 -15.5 94t-50.5 67.5t-93.5 42t-144.5 14.5h-14v140h-94v-754h94v176zM166 530h25q41 0 75.5 -4.5t64 -18t47.5 -40.5t18 -69q0 -43 -16.5 -70.5t-45 -42t-62.5 -20t-76 -5.5h-30v270z" />
    <glyph glyph-name="germandbls" unicode="&#xdf;" horiz-adv-x="580" 
d="M282 -16q59 0 111.5 21t91.5 59t60.5 88t21.5 106q0 79 -42 147.5t-114 91.5q96 56 96 167q0 46 -16.5 86t-46 69t-69.5 45t-85 16q-61 0 -103.5 -19t-68.5 -54t-38 -82.5t-12 -106.5v-148h-40v-84h40v-386h90v559q0 53 3 91t15 71.5t39 54t72 20.5q54 0 92 -36t38 -91
q0 -58 -38.5 -98t-96.5 -40v-88q86 -5 140.5 -53t54.5 -132q0 -38 -15.5 -73t-43 -61t-63 -41t-73.5 -15v-84z" />
    <glyph glyph-name="agrave" unicode="&#xe0;" horiz-adv-x="556" 
d="M159 690l164 -149l44 27l-125 166zM264 64q-68 0 -108 50t-40 120q0 69 40.5 118.5t107.5 49.5q70 0 111 -48.5t41 -119.5q0 -72 -40.5 -121t-111.5 -49zM501 468h-90v-78h-2q-28 43 -69.5 67.5t-92.5 24.5q-50 0 -91 -19.5t-70 -54t-44.5 -79t-15.5 -92.5q0 -50 15 -96
t44 -81.5t71 -55.5t94 -20q49 0 90 24t69 65h2v-73h90v468z" />
    <glyph glyph-name="aacute" unicode="&#xe1;" horiz-adv-x="556" 
d="M339 734l-125 -166l44 -27l164 149zM264 64q-68 0 -108 50t-40 120q0 69 40.5 118.5t107.5 49.5q70 0 111 -48.5t41 -119.5q0 -72 -40.5 -121t-111.5 -49zM501 468h-90v-78h-2q-28 43 -69.5 67.5t-92.5 24.5q-50 0 -91 -19.5t-70 -54t-44.5 -79t-15.5 -92.5q0 -50 15 -96
t44 -81.5t71 -55.5t94 -20q49 0 90 24t69 65h2v-73h90v468z" />
    <glyph glyph-name="acircumflex" unicode="&#xe2;" horiz-adv-x="556" 
d="M118 589l58 -46l101 96l102 -96l59 46l-161 145zM264 64q-68 0 -108 50t-40 120q0 69 40.5 118.5t107.5 49.5q70 0 111 -48.5t41 -119.5q0 -72 -40.5 -121t-111.5 -49zM501 468h-90v-78h-2q-28 43 -69.5 67.5t-92.5 24.5q-50 0 -91 -19.5t-70 -54t-44.5 -79t-15.5 -92.5
q0 -50 15 -96t44 -81.5t71 -55.5t94 -20q49 0 90 24t69 65h2v-73h90v468z" />
    <glyph glyph-name="atilde" unicode="&#xe3;" horiz-adv-x="556" 
d="M134 573q9 18 24.5 32t32.5 14q24 0 72 -22l6 -3q27 -13 45.5 -19.5t37.5 -6.5q39 0 69.5 22.5t48.5 59.5l-47 39q-13 -21 -28.5 -34.5t-35.5 -13.5q-22 0 -71 27h-1q-48 26 -89 26q-36 0 -59 -19.5t-49 -56.5l-3 -5zM264 64q-68 0 -108 50t-40 120q0 69 40.5 118.5
t107.5 49.5q70 0 111 -48.5t41 -119.5q0 -72 -40.5 -121t-111.5 -49zM501 468h-90v-78h-2q-28 43 -69.5 67.5t-92.5 24.5q-50 0 -91 -19.5t-70 -54t-44.5 -79t-15.5 -92.5q0 -50 15 -96t44 -81.5t71 -55.5t94 -20q49 0 90 24t69 65h2v-73h90v468z" />
    <glyph glyph-name="adieresis" unicode="&#xe4;" horiz-adv-x="556" 
d="M173 694q-25 0 -43 -17.5t-18 -42.5t18 -43t43 -18t42.5 18t17.5 43t-17.5 42.5t-42.5 17.5zM384 694q-25 0 -43 -17.5t-18 -42.5t18 -43t43 -18t42.5 18t17.5 43t-17.5 42.5t-42.5 17.5zM264 64q-68 0 -108 50t-40 120q0 69 40.5 118.5t107.5 49.5q70 0 111 -48.5
t41 -119.5q0 -72 -40.5 -121t-111.5 -49zM501 468h-90v-78h-2q-28 43 -69.5 67.5t-92.5 24.5q-50 0 -91 -19.5t-70 -54t-44.5 -79t-15.5 -92.5q0 -50 15 -96t44 -81.5t71 -55.5t94 -20q49 0 90 24t69 65h2v-73h90v468z" />
    <glyph glyph-name="aring" unicode="&#xe5;" horiz-adv-x="556" 
d="M278 734q-37 0 -63.5 -26.5t-26.5 -64.5t26 -64t64 -26t64.5 26t26.5 64t-26.5 64.5t-64.5 26.5zM278 598q-18 0 -31.5 13t-13.5 32t13.5 32.5t31.5 13.5q19 0 32.5 -13.5t13.5 -32.5t-13.5 -32t-32.5 -13zM264 64q-68 0 -108 50t-40 120q0 69 40.5 118.5t107.5 49.5
q70 0 111 -48.5t41 -119.5q0 -72 -40.5 -121t-111.5 -49zM501 468h-90v-78h-2q-28 43 -69.5 67.5t-92.5 24.5q-50 0 -91 -19.5t-70 -54t-44.5 -79t-15.5 -92.5q0 -50 15 -96t44 -81.5t71 -55.5t94 -20q49 0 90 24t69 65h2v-73h90v468z" />
    <glyph glyph-name="ae" unicode="&#xe6;" horiz-adv-x="807" 
d="M442 287q8 51 44.5 84t88.5 33q53 0 87 -31.5t42 -85.5h-262zM221 218q19 0 39.5 -4t38.5 -13t29.5 -24t11.5 -35t-11 -35t-28.5 -24.5t-38 -14t-38.5 -4.5q-19 0 -39 4t-36.5 13t-27.5 23.5t-11 34.5q0 38 35 58.5t76 20.5zM792 219v14q0 110 -56 179.5t-163 69.5
q-55 0 -101.5 -19.5t-76.5 -57.5q-21 38 -66.5 57.5t-93.5 19.5q-75 0 -141 -13v-80q28 9 59 12t69 3q123 0 123 -121v-32q-28 23 -64.5 33t-77.5 10q-75 0 -126 -41.5t-51 -115.5q0 -38 16 -67t43.5 -48t61.5 -28.5t69 -9.5q54 0 102.5 22.5t76.5 64.5q35 -41 81.5 -64
t98.5 -23q69 0 126.5 34t90.5 94l-76 43q-28 -46 -59.5 -68.5t-80.5 -22.5q-62 0 -101 46t-40 109h357z" />
    <glyph glyph-name="ccedilla" unicode="&#xe7;" horiz-adv-x="441" 
d="M406 451q-26 15 -58.5 23t-65.5 8q-53 0 -100 -18.5t-82 -53t-54.5 -80.5t-19.5 -100q0 -52 19.5 -97t54 -78.5t80.5 -52t97 -18.5q71 0 129 31v115q-55 -62 -128 -62q-71 0 -116.5 47t-45.5 119q0 32 12 61.5t33.5 52.5t50 36.5t60.5 13.5q79 0 134 -63v116zM300 -46
l-71 29l-87 -137l53 -27z" />
    <glyph glyph-name="egrave" unicode="&#xe8;" horiz-adv-x="488" 
d="M125 690l164 -149l44 27l-125 166zM473 219v14q0 110 -56 179.5t-163 69.5q-110 0 -169 -70t-59 -182q0 -52 16 -97t46 -78.5t72.5 -52t95.5 -18.5q69 0 126.5 34t90.5 94l-76 43q-28 -46 -59.5 -68.5t-80.5 -22.5q-62 0 -101 46t-40 109h357zM121 287q8 51 44.5 84
t88.5 33q53 0 87 -31.5t42 -85.5h-262z" />
    <glyph glyph-name="eacute" unicode="&#xe9;" horiz-adv-x="488" 
d="M305 734l-125 -166l44 -27l164 149zM473 219v14q0 110 -56 179.5t-163 69.5q-110 0 -169 -70t-59 -182q0 -52 16 -97t46 -78.5t72.5 -52t95.5 -18.5q69 0 126.5 34t90.5 94l-76 43q-28 -46 -59.5 -68.5t-80.5 -22.5q-62 0 -101 46t-40 109h357zM121 287q8 51 44.5 84
t88.5 33q53 0 87 -31.5t42 -85.5h-262z" />
    <glyph glyph-name="ecircumflex" unicode="&#xea;" horiz-adv-x="488" 
d="M84 589l58 -46l101 96l102 -96l59 46l-161 145zM473 219v14q0 110 -56 179.5t-163 69.5q-110 0 -169 -70t-59 -182q0 -52 16 -97t46 -78.5t72.5 -52t95.5 -18.5q69 0 126.5 34t90.5 94l-76 43q-28 -46 -59.5 -68.5t-80.5 -22.5q-62 0 -101 46t-40 109h357zM121 287
q8 51 44.5 84t88.5 33q53 0 87 -31.5t42 -85.5h-262z" />
    <glyph glyph-name="edieresis" unicode="&#xeb;" horiz-adv-x="488" 
d="M139 694q-25 0 -43 -17.5t-18 -42.5t18 -43t43 -18t42.5 18t17.5 43t-17.5 42.5t-42.5 17.5zM350 694q-25 0 -43 -17.5t-18 -42.5t18 -43t43 -18t42.5 18t17.5 43t-17.5 42.5t-42.5 17.5zM473 219v14q0 110 -56 179.5t-163 69.5q-110 0 -169 -70t-59 -182q0 -52 16 -97
t46 -78.5t72.5 -52t95.5 -18.5q69 0 126.5 34t90.5 94l-76 43q-28 -46 -59.5 -68.5t-80.5 -22.5q-62 0 -101 46t-40 109h357zM121 287q8 51 44.5 84t88.5 33q53 0 87 -31.5t42 -85.5h-262z" />
    <glyph glyph-name="igrave" unicode="&#xec;" horiz-adv-x="254" 
d="M-7 690l164 -149l44 27l-125 166zM172 468h-90v-468h90v468z" />
    <glyph glyph-name="iacute" unicode="&#xed;" horiz-adv-x="254" 
d="M178 734l-125 -166l44 -27l164 149zM172 468h-90v-468h90v468z" />
    <glyph glyph-name="icircumflex" unicode="&#xee;" horiz-adv-x="254" 
d="M-33 589l58 -46l101 96l102 -96l59 46l-161 145zM172 468h-90v-468h90v468z" />
    <glyph glyph-name="idieresis" unicode="&#xef;" horiz-adv-x="254" 
d="M22 694q-25 0 -43 -17.5t-18 -42.5t18 -43t43 -18t42.5 18t17.5 43t-17.5 42.5t-42.5 17.5zM233 694q-25 0 -43 -17.5t-18 -42.5t18 -43t43 -18t42.5 18t17.5 43t-17.5 42.5t-42.5 17.5zM172 468h-90v-468h90v468z" />
    <glyph glyph-name="eth" unicode="&#xf0;" horiz-adv-x="540" 
d="M270 396q33 0 62 -12.5t51.5 -35.5t34.5 -52.5t12 -62.5q0 -32 -12.5 -62t-34.5 -52.5t-51 -35.5t-62 -13t-62 13t-51 35.5t-34.5 52.5t-12.5 62q0 33 12.5 62.5t34.5 52.5t51.5 35.5t61.5 12.5zM46 638l44 -54l147 84q81 -101 139 -220l-6 4q-24 14 -45.5 22t-54.5 8
q-51 0 -97 -19t-80.5 -53t-53.5 -79.5t-19 -97.5t19 -97.5t53.5 -79.5t80.5 -53t97 -19q53 0 98.5 18t79.5 52.5t53 85t19 112.5q0 55 -16 115t-44.5 119.5t-66 116.5t-81.5 108l141 81l-42 55l-145 -83q-67 71 -129 113l-57 -51q57 -45 111 -105z" />
    <glyph glyph-name="ntilde" unicode="&#xf1;" horiz-adv-x="523" 
d="M118 573q9 18 24.5 32t32.5 14q24 0 72 -22l6 -3q27 -13 45.5 -19.5t37.5 -6.5q39 0 69.5 22.5t48.5 59.5l-47 39q-13 -21 -28.5 -34.5t-35.5 -13.5q-22 0 -71 27h-1q-48 26 -89 26q-36 0 -59 -19.5t-49 -56.5l-3 -5zM152 468h-90v-468h90v215q0 44 2.5 73t13 55.5
t35 42.5t65.5 16q64 0 83.5 -32.5t19.5 -101.5v-268h90v279q0 45 -7.5 81.5t-26.5 64t-51.5 42.5t-80.5 15q-44 0 -82.5 -20t-58.5 -57h-2v63z" />
    <glyph glyph-name="ograve" unicode="&#xf2;" horiz-adv-x="540" 
d="M126 690l164 -149l44 27l-125 166zM270 482q-51 0 -97 -19t-80.5 -53t-53.5 -79.5t-19 -97.5t19 -97.5t53.5 -79.5t80.5 -53t97 -19q52 0 97.5 19t80 53t53.5 79.5t19 97.5t-19 97.5t-53.5 79.5t-80 53t-97.5 19zM270 396q33 0 62 -12.5t51.5 -35.5t34.5 -52.5t12 -62.5
q0 -32 -12.5 -62t-34.5 -52.5t-51 -35.5t-62 -13t-62 13t-51 35.5t-34.5 52.5t-12.5 62q0 33 12.5 62.5t34.5 52.5t51.5 35.5t61.5 12.5z" />
    <glyph glyph-name="oacute" unicode="&#xf3;" horiz-adv-x="540" 
d="M331 734l-125 -166l44 -27l164 149zM270 482q-51 0 -97 -19t-80.5 -53t-53.5 -79.5t-19 -97.5t19 -97.5t53.5 -79.5t80.5 -53t97 -19q52 0 97.5 19t80 53t53.5 79.5t19 97.5t-19 97.5t-53.5 79.5t-80 53t-97.5 19zM270 396q33 0 62 -12.5t51.5 -35.5t34.5 -52.5t12 -62.5
q0 -32 -12.5 -62t-34.5 -52.5t-51 -35.5t-62 -13t-62 13t-51 35.5t-34.5 52.5t-12.5 62q0 33 12.5 62.5t34.5 52.5t51.5 35.5t61.5 12.5z" />
    <glyph glyph-name="ocircumflex" unicode="&#xf4;" horiz-adv-x="540" 
d="M110 589l58 -46l101 96l102 -96l59 46l-161 145zM270 482q-51 0 -97 -19t-80.5 -53t-53.5 -79.5t-19 -97.5t19 -97.5t53.5 -79.5t80.5 -53t97 -19q52 0 97.5 19t80 53t53.5 79.5t19 97.5t-19 97.5t-53.5 79.5t-80 53t-97.5 19zM270 396q33 0 62 -12.5t51.5 -35.5
t34.5 -52.5t12 -62.5q0 -32 -12.5 -62t-34.5 -52.5t-51 -35.5t-62 -13t-62 13t-51 35.5t-34.5 52.5t-12.5 62q0 33 12.5 62.5t34.5 52.5t51.5 35.5t61.5 12.5z" />
    <glyph glyph-name="otilde" unicode="&#xf5;" horiz-adv-x="540" 
d="M126 573q9 18 24.5 32t32.5 14q24 0 72 -22l6 -3q27 -13 45.5 -19.5t37.5 -6.5q39 0 69.5 22.5t48.5 59.5l-47 39q-13 -21 -28.5 -34.5t-35.5 -13.5q-22 0 -71 27h-1q-48 26 -89 26q-36 0 -59 -19.5t-49 -56.5l-3 -5zM270 482q-51 0 -97 -19t-80.5 -53t-53.5 -79.5
t-19 -97.5t19 -97.5t53.5 -79.5t80.5 -53t97 -19q52 0 97.5 19t80 53t53.5 79.5t19 97.5t-19 97.5t-53.5 79.5t-80 53t-97.5 19zM270 396q33 0 62 -12.5t51.5 -35.5t34.5 -52.5t12 -62.5q0 -32 -12.5 -62t-34.5 -52.5t-51 -35.5t-62 -13t-62 13t-51 35.5t-34.5 52.5
t-12.5 62q0 33 12.5 62.5t34.5 52.5t51.5 35.5t61.5 12.5z" />
    <glyph glyph-name="odieresis" unicode="&#xf6;" horiz-adv-x="540" 
d="M165 694q-25 0 -43 -17.5t-18 -42.5t18 -43t43 -18t42.5 18t17.5 43t-17.5 42.5t-42.5 17.5zM376 694q-25 0 -43 -17.5t-18 -42.5t18 -43t43 -18t42.5 18t17.5 43t-17.5 42.5t-42.5 17.5zM270 482q-51 0 -97 -19t-80.5 -53t-53.5 -79.5t-19 -97.5t19 -97.5t53.5 -79.5
t80.5 -53t97 -19q52 0 97.5 19t80 53t53.5 79.5t19 97.5t-19 97.5t-53.5 79.5t-80 53t-97.5 19zM270 396q33 0 62 -12.5t51.5 -35.5t34.5 -52.5t12 -62.5q0 -32 -12.5 -62t-34.5 -52.5t-51 -35.5t-62 -13t-62 13t-51 35.5t-34.5 52.5t-12.5 62q0 33 12.5 62.5t34.5 52.5
t51.5 35.5t61.5 12.5z" />
    <glyph glyph-name="divide" unicode="&#xf7;" 
d="M33 213h512v86h-512v-86zM289 124q-26 0 -44 -18.5t-18 -44.5q0 -25 18 -43t44 -18t44 18t18 43q0 26 -18 44.5t-44 18.5zM289 512q-26 0 -44 -18.5t-18 -44.5q0 -25 18 -43t44 -18t44 18t18 43q0 26 -18 44.5t-44 18.5z" />
    <glyph glyph-name="oslash" unicode="&#xf8;" horiz-adv-x="540" 
d="M139 141q-29 42 -29 92q0 33 12.5 62.5t34.5 52.5t51.5 35.5t61.5 12.5q50 0 92 -30zM405 319q25 -37 25 -86q0 -32 -12.5 -62t-34.5 -52.5t-51 -35.5t-62 -13q-48 0 -86 26zM8 9l44 -47l69 70q31 -23 69 -35.5t80 -12.5q52 0 97.5 19t80 53t53.5 79.5t19 97.5
q0 43 -13 82t-37 70l62 63l-46 43l-61 -61q-68 52 -155 52q-51 0 -97 -19t-80.5 -53t-53.5 -79.5t-19 -97.5q0 -45 14.5 -85.5t40.5 -71.5z" />
    <glyph glyph-name="ugrave" unicode="&#xf9;" horiz-adv-x="512" 
d="M112 690l164 -149l44 27l-125 166zM58 468v-269q0 -100 49 -157.5t149 -57.5t149 57.5t49 157.5v269h-90v-259q0 -31 -4.5 -55.5t-16.5 -44t-33.5 -30.5t-53.5 -11t-53.5 11t-33.5 30.5t-16.5 44t-4.5 55.5v259h-90z" />
    <glyph glyph-name="uacute" unicode="&#xfa;" horiz-adv-x="512" 
d="M317 734l-125 -166l44 -27l164 149zM58 468v-269q0 -100 49 -157.5t149 -57.5t149 57.5t49 157.5v269h-90v-259q0 -31 -4.5 -55.5t-16.5 -44t-33.5 -30.5t-53.5 -11t-53.5 11t-33.5 30.5t-16.5 44t-4.5 55.5v259h-90z" />
    <glyph glyph-name="ucircumflex" unicode="&#xfb;" horiz-adv-x="512" 
d="M96 589l58 -46l101 96l102 -96l59 46l-161 145zM58 468v-269q0 -100 49 -157.5t149 -57.5t149 57.5t49 157.5v269h-90v-259q0 -31 -4.5 -55.5t-16.5 -44t-33.5 -30.5t-53.5 -11t-53.5 11t-33.5 30.5t-16.5 44t-4.5 55.5v259h-90z" />
    <glyph glyph-name="udieresis" unicode="&#xfc;" horiz-adv-x="512" 
d="M151 694q-25 0 -43 -17.5t-18 -42.5t18 -43t43 -18t42.5 18t17.5 43t-17.5 42.5t-42.5 17.5zM362 694q-25 0 -43 -17.5t-18 -42.5t18 -43t43 -18t42.5 18t17.5 43t-17.5 42.5t-42.5 17.5zM58 468v-269q0 -100 49 -157.5t149 -57.5t149 57.5t49 157.5v269h-90v-259
q0 -31 -4.5 -55.5t-16.5 -44t-33.5 -30.5t-53.5 -11t-53.5 11t-33.5 30.5t-16.5 44t-4.5 55.5v259h-90z" />
    <glyph glyph-name="yacute" unicode="&#xfd;" horiz-adv-x="484" 
d="M323 734l-125 -166l44 -27l164 149zM201 80l-184 -348h102l379 736h-101l-147 -297l-158 297h-105z" />
    <glyph glyph-name="thorn" unicode="&#xfe;" horiz-adv-x="556" 
d="M145 868h-90v-1136h90v341h2q28 -41 69.5 -65t89.5 -24q52 0 94.5 20t71 55t43.5 81t15 97q0 48 -15.5 92.5t-44.5 78.5t-70 54t-90 20q-51 0 -92.5 -24.5t-70.5 -67.5h-2v478zM288 64q-68 0 -108 50t-40 120q0 69 40.5 118.5t107.5 49.5q70 0 111 -48.5t41 -119.5
q0 -72 -40.5 -121t-111.5 -49z" />
    <glyph glyph-name="ydieresis" unicode="&#xff;" horiz-adv-x="484" 
d="M147 694q-25 0 -43 -17.5t-18 -42.5t18 -43t43 -18t42.5 18t17.5 43t-17.5 42.5t-42.5 17.5zM358 694q-25 0 -43 -17.5t-18 -42.5t18 -43t43 -18t42.5 18t17.5 43t-17.5 42.5t-42.5 17.5zM201 80l-184 -348h102l379 736h-101l-147 -297l-158 297h-105z" />
    </font>
</defs>
</svg>
